<svg id="Layer_1" data-name="Layer 1" xmlns="http://www.w3.org/2000/svg" viewBox="0 0 422 310.5"><defs><style>.cls-1{fill:#020202;}</style></defs><title>EletricGoLogo</title><path class="cls-1" d="M709,440.5H422V366H406.5V307.5H422v-19H352.15l-.84.15c-1.75.32-42.81,8.55-42.81,77.35v74.5H308a10.5,10.5,0,0,0,0,21H709a10.5,10.5,0,0,0,0-21ZM387.5,366h-60c0-48.05,22.35-57.18,26.68-58.5H387.5Z" transform="translate(-297.5 -200)"/><polygon class="cls-1" points="164.63 31.71 164.63 90.42 240.25 82.42 238.47 23.7 164.63 31.71"/><path class="cls-1" d="M701.5,200h-267V428h267ZM456.79,295.76v-68.5l82.74-9.79,18.68,25.8,3.56,63.17-73.84,6.23Zm210,79.18-56.94,15.13-18.68-14.24-.89,18.68-65.83,16-29.36-31.14-2.67-50.71,26.69,27.58,72.06-15.13-16.9-12.45v-16l36.47,25.8L671.2,326ZM673,309.11,610.7,322.45l-36.47-23.13v-56l38.25,16,66.73-8.9Z" transform="translate(-297.5 -200)"/><path class="cls-1" d="M406.45,471c0,.33.05.66.05,1a13.5,13.5,0,0,1-27,0c0-.34,0-.67.05-1h-25c0,.33,0,.66,0,1a38.5,38.5,0,0,0,77,0c0-.34,0-.67,0-1Z" transform="translate(-297.5 -200)"/><path class="cls-1" d="M597.45,471c0,.33,0,.66,0,1a13.5,13.5,0,0,1-27,0c0-.34,0-.67,0-1h-25c0,.33,0,.66,0,1a38.5,38.5,0,0,0,77,0c0-.34,0-.67,0-1Z" transform="translate(-297.5 -200)"/><path class="cls-1" d="M674.45,471c0,.33,0,.66,0,1a13.5,13.5,0,0,1-27,0c0-.34,0-.67,0-1h-25c0,.33,0,.66,0,1a38.5,38.5,0,0,0,77,0c0-.34,0-.67,0-1Z" transform="translate(-297.5 -200)"/></svg>