<?xml version="1.0" encoding="UTF-8" standalone="no"?><svg xmlns="http://www.w3.org/2000/svg" xmlns:xlink="http://www.w3.org/1999/xlink" contentStyleType="text/css" height="641px" preserveAspectRatio="none" style="width:3007px;height:641px;background:#FFFFFF;" version="1.1" viewBox="0 0 3007 641" width="3007px" zoomAndPan="magnify"><defs/><g><!--MD5=[cab221d63aea456e8d90994dcd0c32fa]
cluster aggregate armazem--><g id="cluster_aggregate armazem"><path d="M943.5,285.61 L1082.5,285.61 A3.75,3.75 0 0 1 1085,288.11 L1092,309.2194 L1368.5,309.2194 A2.5,2.5 0 0 1 1371,311.7194 L1371,632.11 A2.5,2.5 0 0 1 1368.5,634.61 L943.5,634.61 A2.5,2.5 0 0 1 941,632.11 L941,288.11 A2.5,2.5 0 0 1 943.5,285.61 " style="stroke:#000000;stroke-width:1.5;fill:none;"/><line style="stroke:#000000;stroke-width:1.5;fill:none;" x1="941" x2="1092" y1="309.2194" y2="309.2194"/><text fill="#000000" font-family="sans-serif" font-size="14" font-weight="bold" lengthAdjust="spacing" textLength="138" x="945" y="302.1432">aggregate armazem</text></g><!--MD5=[edda5cc8a938059cce750cc2e06538f1]
cluster aggregate loja--><g id="cluster_aggregate loja"><path d="M8.5,79.61 L110.5,79.61 A3.75,3.75 0 0 1 113,82.11 L120,103.2194 L145.5,103.2194 A2.5,2.5 0 0 1 148,105.7194 L148,414.61 A2.5,2.5 0 0 1 145.5,417.11 L8.5,417.11 A2.5,2.5 0 0 1 6,414.61 L6,82.11 A2.5,2.5 0 0 1 8.5,79.61 " style="stroke:#000000;stroke-width:1.5;fill:none;"/><line style="stroke:#000000;stroke-width:1.5;fill:none;" x1="6" x2="120" y1="103.2194" y2="103.2194"/><text fill="#000000" font-family="sans-serif" font-size="14" font-weight="bold" lengthAdjust="spacing" textLength="101" x="10" y="96.1432">aggregate loja</text></g><!--MD5=[df92e1c6c8d12527683aa832bf86f4d5]
cluster aggregate entrega--><g id="cluster_aggregate entrega"><path d="M2394.5,276.61 L2526.5,276.61 A3.75,3.75 0 0 1 2529,279.11 L2536,300.2194 L2997.5,300.2194 A2.5,2.5 0 0 1 3000,302.7194 L3000,614.61 A2.5,2.5 0 0 1 2997.5,617.11 L2394.5,617.11 A2.5,2.5 0 0 1 2392,614.61 L2392,279.11 A2.5,2.5 0 0 1 2394.5,276.61 " style="stroke:#000000;stroke-width:1.5;fill:none;"/><line style="stroke:#000000;stroke-width:1.5;fill:none;" x1="2392" x2="2536" y1="300.2194" y2="300.2194"/><text fill="#000000" font-family="sans-serif" font-size="14" font-weight="bold" lengthAdjust="spacing" textLength="131" x="2396" y="293.1432">aggregate entrega</text></g><!--MD5=[8f829ce391d59a218d38330dad05eb09]
cluster aggregate rota--><g id="cluster_aggregate rota"><path d="M194.5,70.61 L299.5,70.61 A3.75,3.75 0 0 1 302,73.11 L309,94.2194 L914.5,94.2194 A2.5,2.5 0 0 1 917,96.7194 L917,414.61 A2.5,2.5 0 0 1 914.5,417.11 L194.5,417.11 A2.5,2.5 0 0 1 192,414.61 L192,73.11 A2.5,2.5 0 0 1 194.5,70.61 " style="stroke:#000000;stroke-width:1.5;fill:none;"/><line style="stroke:#000000;stroke-width:1.5;fill:none;" x1="192" x2="309" y1="94.2194" y2="94.2194"/><text fill="#000000" font-family="sans-serif" font-size="14" font-weight="bold" lengthAdjust="spacing" textLength="104" x="196" y="87.1432">aggregate rota</text></g><!--MD5=[2ca0b1255a0c5bee793749515c08d294]
cluster aggregate camião--><g id="cluster_aggregate camião"><path d="M1397.5,79.61 L1523.5,79.61 A3.75,3.75 0 0 1 1526,82.11 L1533,103.2194 L2365.5,103.2194 A2.5,2.5 0 0 1 2368,105.7194 L2368,414.61 A2.5,2.5 0 0 1 2365.5,417.11 L1397.5,417.11 A2.5,2.5 0 0 1 1395,414.61 L1395,82.11 A2.5,2.5 0 0 1 1397.5,79.61 " style="stroke:#000000;stroke-width:1.5;fill:none;"/><line style="stroke:#000000;stroke-width:1.5;fill:none;" x1="1395" x2="1533" y1="103.2194" y2="103.2194"/><text fill="#000000" font-family="sans-serif" font-size="14" font-weight="bold" lengthAdjust="spacing" textLength="125" x="1399" y="96.1432">aggregate camião</text></g><!--MD5=[0a8c0962b12022b9d8929b1ac9dc838e]
class Armazem--><g id="elem_Armazem"><rect codeLine="11" fill="#F1F1F1" height="68.3125" id="Armazem" rx="2.5" ry="2.5" style="stroke:#181818;stroke-width:0.5;" width="90" x="1069" y="341.61"/><ellipse cx="1084" cy="362.9616" fill="#ADD1B2" rx="11" ry="11" style="stroke:#181818;stroke-width:1.0;"/><path d="M1086,359.4616 Q1086.2031,358.9616 1086.4375,358.7116 Q1086.6719,358.4616 1086.9375,358.4616 Q1087.4063,358.4616 1087.7031,358.7428 Q1088,359.0241 1088,359.6803 L1088,361.2428 Q1088,361.8991 1087.7188,362.1803 Q1087.4375,362.4616 1087,362.4616 Q1086.6094,362.4616 1086.3594,362.2897 Q1086.1094,362.1178 1086,361.6647 Q1085.9531,361.3522 1085.7813,361.1803 Q1085.4688,360.8522 1084.9063,360.6647 Q1084.3438,360.4616 1083.7813,360.4616 Q1083.0781,360.4616 1082.4844,360.7428 Q1081.9063,361.0241 1081.4531,361.6491 Q1081,362.2741 1081,363.1334 L1081,364.0553 Q1081,365.0866 1081.8438,365.7741 Q1082.6875,366.4616 1084.1875,366.4616 Q1085.0781,366.4616 1085.7031,366.2584 Q1086.0625,366.1491 1086.4688,365.7897 Q1086.7344,365.5866 1086.875,365.5241 Q1087.0156,365.4616 1087.1875,365.4616 Q1087.5156,365.4616 1087.75,365.7272 Q1088,365.9772 1088,366.3366 Q1088,366.6803 1087.6563,367.0866 Q1087.1563,367.6803 1086.3594,368.0084 Q1085.3125,368.4616 1084.0313,368.4616 Q1082.5313,368.4616 1081.3281,367.8678 Q1080.3594,367.3991 1079.6719,366.3834 Q1079,365.3678 1079,364.1647 L1079,363.0709 Q1079,361.8209 1079.5938,360.7272 Q1080.2031,359.6334 1081.25,359.0553 Q1082.3125,358.4616 1083.5,358.4616 Q1084.2188,358.4616 1084.8438,358.7116 Q1085.4688,358.9616 1086,359.4616 Z " fill="#000000"/><text fill="#000000" font-family="sans-serif" font-size="12" font-style="italic" lengthAdjust="spacing" textLength="35" x="1109.5" y="359.067">«root»</text><text fill="#000000" font-family="sans-serif" font-size="14" lengthAdjust="spacing" textLength="58" x="1098" y="376.237">Armazem</text><line style="stroke:#181818;stroke-width:0.5;" x1="1070" x2="1158" y1="384.3131" y2="384.3131"/><text fill="#000000" font-family="sans-serif" font-size="14" lengthAdjust="spacing" textLength="16" x="1075" y="402.8463">-id</text></g><!--MD5=[36c1942e8942a3e4f47e6de3733e3d18]
class Endereco--><g id="elem_Endereco"><rect codeLine="18" fill="#F1F1F1" height="138.75" id="Endereco" rx="2.5" ry="2.5" style="stroke:#181818;stroke-width:0.5;" width="109" x="1101.5" y="479.61"/><ellipse cx="1116.5" cy="500.9616" fill="#ADD1B2" rx="11" ry="11" style="stroke:#181818;stroke-width:1.0;"/><path d="M1118.5,497.4616 Q1118.7031,496.9616 1118.9375,496.7116 Q1119.1719,496.4616 1119.4375,496.4616 Q1119.9063,496.4616 1120.2031,496.7428 Q1120.5,497.0241 1120.5,497.6803 L1120.5,499.2428 Q1120.5,499.8991 1120.2188,500.1803 Q1119.9375,500.4616 1119.5,500.4616 Q1119.1094,500.4616 1118.8594,500.2897 Q1118.6094,500.1178 1118.5,499.6647 Q1118.4531,499.3522 1118.2813,499.1803 Q1117.9688,498.8522 1117.4063,498.6647 Q1116.8438,498.4616 1116.2813,498.4616 Q1115.5781,498.4616 1114.9844,498.7428 Q1114.4063,499.0241 1113.9531,499.6491 Q1113.5,500.2741 1113.5,501.1334 L1113.5,502.0553 Q1113.5,503.0866 1114.3438,503.7741 Q1115.1875,504.4616 1116.6875,504.4616 Q1117.5781,504.4616 1118.2031,504.2584 Q1118.5625,504.1491 1118.9688,503.7897 Q1119.2344,503.5866 1119.375,503.5241 Q1119.5156,503.4616 1119.6875,503.4616 Q1120.0156,503.4616 1120.25,503.7272 Q1120.5,503.9772 1120.5,504.3366 Q1120.5,504.6803 1120.1563,505.0866 Q1119.6563,505.6803 1118.8594,506.0084 Q1117.8125,506.4616 1116.5313,506.4616 Q1115.0313,506.4616 1113.8281,505.8678 Q1112.8594,505.3991 1112.1719,504.3834 Q1111.5,503.3678 1111.5,502.1647 L1111.5,501.0709 Q1111.5,499.8209 1112.0938,498.7272 Q1112.7031,497.6334 1113.75,497.0553 Q1114.8125,496.4616 1116,496.4616 Q1116.7188,496.4616 1117.3438,496.7116 Q1117.9688,496.9616 1118.5,497.4616 Z " fill="#000000"/><text fill="#000000" font-family="sans-serif" font-size="12" font-style="italic" lengthAdjust="spacing" textLength="81" x="1128.5" y="497.067">«value object»</text><text fill="#000000" font-family="sans-serif" font-size="14" lengthAdjust="spacing" textLength="61" x="1138.5" y="514.237">Endereco</text><line style="stroke:#181818;stroke-width:0.5;" x1="1102.5" x2="1209.5" y1="522.3131" y2="522.3131"/><text fill="#000000" font-family="sans-serif" font-size="14" lengthAdjust="spacing" textLength="26" x="1107.5" y="540.8463">-rua</text><text fill="#000000" font-family="sans-serif" font-size="14" lengthAdjust="spacing" textLength="53" x="1107.5" y="558.4557">-numero</text><text fill="#000000" font-family="sans-serif" font-size="14" lengthAdjust="spacing" textLength="86" x="1107.5" y="576.0651">-codigoPostal</text><text fill="#000000" font-family="sans-serif" font-size="14" lengthAdjust="spacing" textLength="47" x="1107.5" y="593.6745">-cidade</text><text fill="#000000" font-family="sans-serif" font-size="14" lengthAdjust="spacing" textLength="31" x="1107.5" y="611.2838">-pais</text></g><!--MD5=[a8a2e505e5068834723e1e971927952f]
class Designacao--><g id="elem_Designacao"><rect codeLine="28" fill="#F1F1F1" height="50.7031" id="Designacao" rx="2.5" ry="2.5" style="stroke:#181818;stroke-width:0.5;" width="109" x="1245.5" y="523.61"/><ellipse cx="1260.5" cy="544.9616" fill="#ADD1B2" rx="11" ry="11" style="stroke:#181818;stroke-width:1.0;"/><path d="M1262.5,541.4616 Q1262.7031,540.9616 1262.9375,540.7116 Q1263.1719,540.4616 1263.4375,540.4616 Q1263.9063,540.4616 1264.2031,540.7428 Q1264.5,541.0241 1264.5,541.6803 L1264.5,543.2428 Q1264.5,543.8991 1264.2188,544.1803 Q1263.9375,544.4616 1263.5,544.4616 Q1263.1094,544.4616 1262.8594,544.2897 Q1262.6094,544.1178 1262.5,543.6647 Q1262.4531,543.3522 1262.2813,543.1803 Q1261.9688,542.8522 1261.4063,542.6647 Q1260.8438,542.4616 1260.2813,542.4616 Q1259.5781,542.4616 1258.9844,542.7428 Q1258.4063,543.0241 1257.9531,543.6491 Q1257.5,544.2741 1257.5,545.1334 L1257.5,546.0553 Q1257.5,547.0866 1258.3438,547.7741 Q1259.1875,548.4616 1260.6875,548.4616 Q1261.5781,548.4616 1262.2031,548.2584 Q1262.5625,548.1491 1262.9688,547.7897 Q1263.2344,547.5866 1263.375,547.5241 Q1263.5156,547.4616 1263.6875,547.4616 Q1264.0156,547.4616 1264.25,547.7272 Q1264.5,547.9772 1264.5,548.3366 Q1264.5,548.6803 1264.1563,549.0866 Q1263.6563,549.6803 1262.8594,550.0084 Q1261.8125,550.4616 1260.5313,550.4616 Q1259.0313,550.4616 1257.8281,549.8678 Q1256.8594,549.3991 1256.1719,548.3834 Q1255.5,547.3678 1255.5,546.1647 L1255.5,545.0709 Q1255.5,543.8209 1256.0938,542.7272 Q1256.7031,541.6334 1257.75,541.0553 Q1258.8125,540.4616 1260,540.4616 Q1260.7188,540.4616 1261.3438,540.7116 Q1261.9688,540.9616 1262.5,541.4616 Z " fill="#000000"/><text fill="#000000" font-family="sans-serif" font-size="12" font-style="italic" lengthAdjust="spacing" textLength="81" x="1272.5" y="541.067">«value object»</text><text fill="#000000" font-family="sans-serif" font-size="14" lengthAdjust="spacing" textLength="75" x="1275.5" y="558.237">Designacao</text><line style="stroke:#181818;stroke-width:0.5;" x1="1246.5" x2="1353.5" y1="566.3131" y2="566.3131"/></g><!--MD5=[74e36fb2b647c2f688adf7ed4adc86d9]
class Localizacao--><g id="elem_Localizacao"><rect codeLine="34" fill="#F1F1F1" height="85.9219" id="Localizacao" rx="2.5" ry="2.5" style="stroke:#181818;stroke-width:0.5;" width="109" x="957.5" y="506.11"/><ellipse cx="972.5" cy="527.4616" fill="#ADD1B2" rx="11" ry="11" style="stroke:#181818;stroke-width:1.0;"/><path d="M974.5,523.9616 Q974.7031,523.4616 974.9375,523.2116 Q975.1719,522.9616 975.4375,522.9616 Q975.9063,522.9616 976.2031,523.2428 Q976.5,523.5241 976.5,524.1803 L976.5,525.7428 Q976.5,526.3991 976.2188,526.6803 Q975.9375,526.9616 975.5,526.9616 Q975.1094,526.9616 974.8594,526.7897 Q974.6094,526.6178 974.5,526.1647 Q974.4531,525.8522 974.2813,525.6803 Q973.9688,525.3522 973.4063,525.1647 Q972.8438,524.9616 972.2813,524.9616 Q971.5781,524.9616 970.9844,525.2428 Q970.4063,525.5241 969.9531,526.1491 Q969.5,526.7741 969.5,527.6334 L969.5,528.5553 Q969.5,529.5866 970.3438,530.2741 Q971.1875,530.9616 972.6875,530.9616 Q973.5781,530.9616 974.2031,530.7584 Q974.5625,530.6491 974.9688,530.2897 Q975.2344,530.0866 975.375,530.0241 Q975.5156,529.9616 975.6875,529.9616 Q976.0156,529.9616 976.25,530.2272 Q976.5,530.4772 976.5,530.8366 Q976.5,531.1803 976.1563,531.5866 Q975.6563,532.1803 974.8594,532.5084 Q973.8125,532.9616 972.5313,532.9616 Q971.0313,532.9616 969.8281,532.3678 Q968.8594,531.8991 968.1719,530.8834 Q967.5,529.8678 967.5,528.6647 L967.5,527.5709 Q967.5,526.3209 968.0938,525.2272 Q968.7031,524.1334 969.75,523.5553 Q970.8125,522.9616 972,522.9616 Q972.7188,522.9616 973.3438,523.2116 Q973.9688,523.4616 974.5,523.9616 Z " fill="#000000"/><text fill="#000000" font-family="sans-serif" font-size="12" font-style="italic" lengthAdjust="spacing" textLength="81" x="984.5" y="523.567">«value object»</text><text fill="#000000" font-family="sans-serif" font-size="14" lengthAdjust="spacing" textLength="74" x="988" y="540.737">Localizacao</text><line style="stroke:#181818;stroke-width:0.5;" x1="958.5" x2="1065.5" y1="548.8131" y2="548.8131"/><text fill="#000000" font-family="sans-serif" font-size="14" lengthAdjust="spacing" textLength="51" x="963.5" y="567.3463">-latitude</text><text fill="#000000" font-family="sans-serif" font-size="14" lengthAdjust="spacing" textLength="63" x="963.5" y="584.9557">-longitude</text></g><!--MD5=[3f874b291fb3f223c7cc533e008b8b83]
class Loja--><g id="elem_Loja"><rect codeLine="48" fill="#F1F1F1" height="68.3125" id="Loja" rx="2.5" ry="2.5" style="stroke:#181818;stroke-width:0.5;" width="63" x="56.5" y="135.61"/><ellipse cx="71.5" cy="156.9616" fill="#ADD1B2" rx="11" ry="11" style="stroke:#181818;stroke-width:1.0;"/><path d="M73.5,153.4616 Q73.7031,152.9616 73.9375,152.7116 Q74.1719,152.4616 74.4375,152.4616 Q74.9063,152.4616 75.2031,152.7428 Q75.5,153.0241 75.5,153.6803 L75.5,155.2428 Q75.5,155.8991 75.2188,156.1803 Q74.9375,156.4616 74.5,156.4616 Q74.1094,156.4616 73.8594,156.2897 Q73.6094,156.1178 73.5,155.6647 Q73.4531,155.3522 73.2813,155.1803 Q72.9688,154.8522 72.4063,154.6647 Q71.8438,154.4616 71.2813,154.4616 Q70.5781,154.4616 69.9844,154.7428 Q69.4063,155.0241 68.9531,155.6491 Q68.5,156.2741 68.5,157.1334 L68.5,158.0553 Q68.5,159.0866 69.3438,159.7741 Q70.1875,160.4616 71.6875,160.4616 Q72.5781,160.4616 73.2031,160.2584 Q73.5625,160.1491 73.9688,159.7897 Q74.2344,159.5866 74.375,159.5241 Q74.5156,159.4616 74.6875,159.4616 Q75.0156,159.4616 75.25,159.7272 Q75.5,159.9772 75.5,160.3366 Q75.5,160.6803 75.1563,161.0866 Q74.6563,161.6803 73.8594,162.0084 Q72.8125,162.4616 71.5313,162.4616 Q70.0313,162.4616 68.8281,161.8678 Q67.8594,161.3991 67.1719,160.3834 Q66.5,159.3678 66.5,158.1647 L66.5,157.0709 Q66.5,155.8209 67.0938,154.7272 Q67.7031,153.6334 68.75,153.0553 Q69.8125,152.4616 71,152.4616 Q71.7188,152.4616 72.3438,152.7116 Q72.9688,152.9616 73.5,153.4616 Z " fill="#000000"/><text fill="#000000" font-family="sans-serif" font-size="12" font-style="italic" lengthAdjust="spacing" textLength="35" x="83.5" y="153.067">«root»</text><text fill="#000000" font-family="sans-serif" font-size="14" lengthAdjust="spacing" textLength="27" x="87.5" y="170.237">Loja</text><line style="stroke:#181818;stroke-width:0.5;" x1="57.5" x2="118.5" y1="178.3131" y2="178.3131"/><text fill="#000000" font-family="sans-serif" font-size="14" lengthAdjust="spacing" textLength="16" x="62.5" y="196.8463">-id</text></g><!--MD5=[4da02cefe03f5f283808fbbc965e8df2]
class Municipio--><g id="elem_Municipio"><rect codeLine="54" fill="#F1F1F1" height="50.7031" id="Municipio" rx="2.5" ry="2.5" style="stroke:#181818;stroke-width:0.5;" width="109" x="22.5" y="350.11"/><ellipse cx="37.5" cy="371.4616" fill="#ADD1B2" rx="11" ry="11" style="stroke:#181818;stroke-width:1.0;"/><path d="M39.5,367.9616 Q39.7031,367.4616 39.9375,367.2116 Q40.1719,366.9616 40.4375,366.9616 Q40.9063,366.9616 41.2031,367.2428 Q41.5,367.5241 41.5,368.1803 L41.5,369.7428 Q41.5,370.3991 41.2188,370.6803 Q40.9375,370.9616 40.5,370.9616 Q40.1094,370.9616 39.8594,370.7897 Q39.6094,370.6178 39.5,370.1647 Q39.4531,369.8522 39.2813,369.6803 Q38.9688,369.3522 38.4063,369.1647 Q37.8438,368.9616 37.2813,368.9616 Q36.5781,368.9616 35.9844,369.2428 Q35.4063,369.5241 34.9531,370.1491 Q34.5,370.7741 34.5,371.6334 L34.5,372.5553 Q34.5,373.5866 35.3438,374.2741 Q36.1875,374.9616 37.6875,374.9616 Q38.5781,374.9616 39.2031,374.7584 Q39.5625,374.6491 39.9688,374.2897 Q40.2344,374.0866 40.375,374.0241 Q40.5156,373.9616 40.6875,373.9616 Q41.0156,373.9616 41.25,374.2272 Q41.5,374.4772 41.5,374.8366 Q41.5,375.1803 41.1563,375.5866 Q40.6563,376.1803 39.8594,376.5084 Q38.8125,376.9616 37.5313,376.9616 Q36.0313,376.9616 34.8281,376.3678 Q33.8594,375.8991 33.1719,374.8834 Q32.5,373.8678 32.5,372.6647 L32.5,371.5709 Q32.5,370.3209 33.0938,369.2272 Q33.7031,368.1334 34.75,367.5553 Q35.8125,366.9616 37,366.9616 Q37.7188,366.9616 38.3438,367.2116 Q38.9688,367.4616 39.5,367.9616 Z " fill="#000000"/><text fill="#000000" font-family="sans-serif" font-size="12" font-style="italic" lengthAdjust="spacing" textLength="81" x="49.5" y="367.567">«value object»</text><text fill="#000000" font-family="sans-serif" font-size="14" lengthAdjust="spacing" textLength="59" x="60.5" y="384.737">Municipio</text><line style="stroke:#181818;stroke-width:0.5;" x1="23.5" x2="130.5" y1="392.8131" y2="392.8131"/></g><!--MD5=[3179f819b5ca0f9c8a1bd58e9144681b]
class Entrega--><g id="elem_Entrega"><rect codeLine="65" fill="#F1F1F1" height="85.9219" id="Entrega" rx="2.5" ry="2.5" style="stroke:#181818;stroke-width:0.5;" width="82" x="2586" y="332.61"/><ellipse cx="2601" cy="353.9616" fill="#ADD1B2" rx="11" ry="11" style="stroke:#181818;stroke-width:1.0;"/><path d="M2603,350.4616 Q2603.2031,349.9616 2603.4375,349.7116 Q2603.6719,349.4616 2603.9375,349.4616 Q2604.4063,349.4616 2604.7031,349.7428 Q2605,350.0241 2605,350.6803 L2605,352.2428 Q2605,352.8991 2604.7188,353.1803 Q2604.4375,353.4616 2604,353.4616 Q2603.6094,353.4616 2603.3594,353.2897 Q2603.1094,353.1178 2603,352.6647 Q2602.9531,352.3522 2602.7813,352.1803 Q2602.4688,351.8522 2601.9063,351.6647 Q2601.3438,351.4616 2600.7813,351.4616 Q2600.0781,351.4616 2599.4844,351.7428 Q2598.9063,352.0241 2598.4531,352.6491 Q2598,353.2741 2598,354.1334 L2598,355.0553 Q2598,356.0866 2598.8438,356.7741 Q2599.6875,357.4616 2601.1875,357.4616 Q2602.0781,357.4616 2602.7031,357.2584 Q2603.0625,357.1491 2603.4688,356.7897 Q2603.7344,356.5866 2603.875,356.5241 Q2604.0156,356.4616 2604.1875,356.4616 Q2604.5156,356.4616 2604.75,356.7272 Q2605,356.9772 2605,357.3366 Q2605,357.6803 2604.6563,358.0866 Q2604.1563,358.6803 2603.3594,359.0084 Q2602.3125,359.4616 2601.0313,359.4616 Q2599.5313,359.4616 2598.3281,358.8678 Q2597.3594,358.3991 2596.6719,357.3834 Q2596,356.3678 2596,355.1647 L2596,354.0709 Q2596,352.8209 2596.5938,351.7272 Q2597.2031,350.6334 2598.25,350.0553 Q2599.3125,349.4616 2600.5,349.4616 Q2601.2188,349.4616 2601.8438,349.7116 Q2602.4688,349.9616 2603,350.4616 Z " fill="#000000"/><text fill="#000000" font-family="sans-serif" font-size="12" font-style="italic" lengthAdjust="spacing" textLength="35" x="2622.5" y="350.067">«root»</text><text fill="#000000" font-family="sans-serif" font-size="14" lengthAdjust="spacing" textLength="50" x="2615" y="367.237">Entrega</text><line style="stroke:#181818;stroke-width:0.5;" x1="2587" x2="2667" y1="375.3131" y2="375.3131"/><text fill="#000000" font-family="sans-serif" font-size="14" lengthAdjust="spacing" textLength="16" x="2592" y="393.8463">-id</text><text fill="#000000" font-family="sans-serif" font-size="14" lengthAdjust="spacing" textLength="43" x="2592" y="411.4557">-idLoja</text></g><!--MD5=[60c9ed31c535bee25c55ce21b5b01399]
class Data--><g id="elem_Data"><rect codeLine="72" fill="#F1F1F1" height="103.5313" id="Data" rx="2.5" ry="2.5" style="stroke:#181818;stroke-width:0.5;" width="109" x="2730.5" y="497.11"/><ellipse cx="2745.5" cy="518.4616" fill="#ADD1B2" rx="11" ry="11" style="stroke:#181818;stroke-width:1.0;"/><path d="M2747.5,514.9616 Q2747.7031,514.4616 2747.9375,514.2116 Q2748.1719,513.9616 2748.4375,513.9616 Q2748.9063,513.9616 2749.2031,514.2428 Q2749.5,514.5241 2749.5,515.1803 L2749.5,516.7428 Q2749.5,517.3991 2749.2188,517.6803 Q2748.9375,517.9616 2748.5,517.9616 Q2748.1094,517.9616 2747.8594,517.7897 Q2747.6094,517.6178 2747.5,517.1647 Q2747.4531,516.8522 2747.2813,516.6803 Q2746.9688,516.3522 2746.4063,516.1647 Q2745.8438,515.9616 2745.2813,515.9616 Q2744.5781,515.9616 2743.9844,516.2428 Q2743.4063,516.5241 2742.9531,517.1491 Q2742.5,517.7741 2742.5,518.6334 L2742.5,519.5553 Q2742.5,520.5866 2743.3438,521.2741 Q2744.1875,521.9616 2745.6875,521.9616 Q2746.5781,521.9616 2747.2031,521.7584 Q2747.5625,521.6491 2747.9688,521.2897 Q2748.2344,521.0866 2748.375,521.0241 Q2748.5156,520.9616 2748.6875,520.9616 Q2749.0156,520.9616 2749.25,521.2272 Q2749.5,521.4772 2749.5,521.8366 Q2749.5,522.1803 2749.1563,522.5866 Q2748.6563,523.1803 2747.8594,523.5084 Q2746.8125,523.9616 2745.5313,523.9616 Q2744.0313,523.9616 2742.8281,523.3678 Q2741.8594,522.8991 2741.1719,521.8834 Q2740.5,520.8678 2740.5,519.6647 L2740.5,518.5709 Q2740.5,517.3209 2741.0938,516.2272 Q2741.7031,515.1334 2742.75,514.5553 Q2743.8125,513.9616 2745,513.9616 Q2745.7188,513.9616 2746.3438,514.2116 Q2746.9688,514.4616 2747.5,514.9616 Z " fill="#000000"/><text fill="#000000" font-family="sans-serif" font-size="12" font-style="italic" lengthAdjust="spacing" textLength="81" x="2757.5" y="514.567">«value object»</text><text fill="#000000" font-family="sans-serif" font-size="14" lengthAdjust="spacing" textLength="30" x="2783" y="531.737">Data</text><line style="stroke:#181818;stroke-width:0.5;" x1="2731.5" x2="2838.5" y1="539.8131" y2="539.8131"/><text fill="#000000" font-family="sans-serif" font-size="14" lengthAdjust="spacing" textLength="24" x="2736.5" y="558.3463">-dia</text><text fill="#000000" font-family="sans-serif" font-size="14" lengthAdjust="spacing" textLength="31" x="2736.5" y="575.9557">-mes</text><text fill="#000000" font-family="sans-serif" font-size="14" lengthAdjust="spacing" textLength="29" x="2736.5" y="593.5651">-ano</text></g><!--MD5=[e570407f598ccc089bf8cecb7854983b]
class Peso--><g id="elem_Peso"><rect codeLine="80" fill="#F1F1F1" height="50.7031" id="Peso" rx="2.5" ry="2.5" style="stroke:#181818;stroke-width:0.5;" width="109" x="2874.5" y="523.61"/><ellipse cx="2889.5" cy="544.9616" fill="#ADD1B2" rx="11" ry="11" style="stroke:#181818;stroke-width:1.0;"/><path d="M2891.5,541.4616 Q2891.7031,540.9616 2891.9375,540.7116 Q2892.1719,540.4616 2892.4375,540.4616 Q2892.9063,540.4616 2893.2031,540.7428 Q2893.5,541.0241 2893.5,541.6803 L2893.5,543.2428 Q2893.5,543.8991 2893.2188,544.1803 Q2892.9375,544.4616 2892.5,544.4616 Q2892.1094,544.4616 2891.8594,544.2897 Q2891.6094,544.1178 2891.5,543.6647 Q2891.4531,543.3522 2891.2813,543.1803 Q2890.9688,542.8522 2890.4063,542.6647 Q2889.8438,542.4616 2889.2813,542.4616 Q2888.5781,542.4616 2887.9844,542.7428 Q2887.4063,543.0241 2886.9531,543.6491 Q2886.5,544.2741 2886.5,545.1334 L2886.5,546.0553 Q2886.5,547.0866 2887.3438,547.7741 Q2888.1875,548.4616 2889.6875,548.4616 Q2890.5781,548.4616 2891.2031,548.2584 Q2891.5625,548.1491 2891.9688,547.7897 Q2892.2344,547.5866 2892.375,547.5241 Q2892.5156,547.4616 2892.6875,547.4616 Q2893.0156,547.4616 2893.25,547.7272 Q2893.5,547.9772 2893.5,548.3366 Q2893.5,548.6803 2893.1563,549.0866 Q2892.6563,549.6803 2891.8594,550.0084 Q2890.8125,550.4616 2889.5313,550.4616 Q2888.0313,550.4616 2886.8281,549.8678 Q2885.8594,549.3991 2885.1719,548.3834 Q2884.5,547.3678 2884.5,546.1647 L2884.5,545.0709 Q2884.5,543.8209 2885.0938,542.7272 Q2885.7031,541.6334 2886.75,541.0553 Q2887.8125,540.4616 2889,540.4616 Q2889.7188,540.4616 2890.3438,540.7116 Q2890.9688,540.9616 2891.5,541.4616 Z " fill="#000000"/><text fill="#000000" font-family="sans-serif" font-size="12" font-style="italic" lengthAdjust="spacing" textLength="81" x="2901.5" y="541.067">«value object»</text><text fill="#000000" font-family="sans-serif" font-size="14" lengthAdjust="spacing" textLength="32" x="2926" y="558.237">Peso</text><line style="stroke:#181818;stroke-width:0.5;" x1="2875.5" x2="2982.5" y1="566.3131" y2="566.3131"/></g><!--MD5=[eb11bf10d4b29c752e40343991a4738d]
class TempoCarga--><g id="elem_TempoCarga"><rect codeLine="86" fill="#F1F1F1" height="50.7031" id="TempoCarga" rx="2.5" ry="2.5" style="stroke:#181818;stroke-width:0.5;" width="115" x="2408.5" y="523.61"/><ellipse cx="2423.5" cy="544.9616" fill="#ADD1B2" rx="11" ry="11" style="stroke:#181818;stroke-width:1.0;"/><path d="M2425.5,541.4616 Q2425.7031,540.9616 2425.9375,540.7116 Q2426.1719,540.4616 2426.4375,540.4616 Q2426.9063,540.4616 2427.2031,540.7428 Q2427.5,541.0241 2427.5,541.6803 L2427.5,543.2428 Q2427.5,543.8991 2427.2188,544.1803 Q2426.9375,544.4616 2426.5,544.4616 Q2426.1094,544.4616 2425.8594,544.2897 Q2425.6094,544.1178 2425.5,543.6647 Q2425.4531,543.3522 2425.2813,543.1803 Q2424.9688,542.8522 2424.4063,542.6647 Q2423.8438,542.4616 2423.2813,542.4616 Q2422.5781,542.4616 2421.9844,542.7428 Q2421.4063,543.0241 2420.9531,543.6491 Q2420.5,544.2741 2420.5,545.1334 L2420.5,546.0553 Q2420.5,547.0866 2421.3438,547.7741 Q2422.1875,548.4616 2423.6875,548.4616 Q2424.5781,548.4616 2425.2031,548.2584 Q2425.5625,548.1491 2425.9688,547.7897 Q2426.2344,547.5866 2426.375,547.5241 Q2426.5156,547.4616 2426.6875,547.4616 Q2427.0156,547.4616 2427.25,547.7272 Q2427.5,547.9772 2427.5,548.3366 Q2427.5,548.6803 2427.1563,549.0866 Q2426.6563,549.6803 2425.8594,550.0084 Q2424.8125,550.4616 2423.5313,550.4616 Q2422.0313,550.4616 2420.8281,549.8678 Q2419.8594,549.3991 2419.1719,548.3834 Q2418.5,547.3678 2418.5,546.1647 L2418.5,545.0709 Q2418.5,543.8209 2419.0938,542.7272 Q2419.7031,541.6334 2420.75,541.0553 Q2421.8125,540.4616 2423,540.4616 Q2423.7188,540.4616 2424.3438,540.7116 Q2424.9688,540.9616 2425.5,541.4616 Z " fill="#000000"/><text fill="#000000" font-family="sans-serif" font-size="12" font-style="italic" lengthAdjust="spacing" textLength="81" x="2438.5" y="541.067">«value object»</text><text fill="#000000" font-family="sans-serif" font-size="14" lengthAdjust="spacing" textLength="83" x="2437.5" y="558.237">TempoCarga</text><line style="stroke:#181818;stroke-width:0.5;" x1="2409.5" x2="2522.5" y1="566.3131" y2="566.3131"/></g><!--MD5=[f83e83ab925ad7ea06af0468f90e637c]
class TempoDescarga--><g id="elem_TempoDescarga"><rect codeLine="92" fill="#F1F1F1" height="50.7031" id="TempoDescarga" rx="2.5" ry="2.5" style="stroke:#181818;stroke-width:0.5;" width="137" x="2558.5" y="523.61"/><ellipse cx="2573.5" cy="544.9616" fill="#ADD1B2" rx="11" ry="11" style="stroke:#181818;stroke-width:1.0;"/><path d="M2575.5,541.4616 Q2575.7031,540.9616 2575.9375,540.7116 Q2576.1719,540.4616 2576.4375,540.4616 Q2576.9063,540.4616 2577.2031,540.7428 Q2577.5,541.0241 2577.5,541.6803 L2577.5,543.2428 Q2577.5,543.8991 2577.2188,544.1803 Q2576.9375,544.4616 2576.5,544.4616 Q2576.1094,544.4616 2575.8594,544.2897 Q2575.6094,544.1178 2575.5,543.6647 Q2575.4531,543.3522 2575.2813,543.1803 Q2574.9688,542.8522 2574.4063,542.6647 Q2573.8438,542.4616 2573.2813,542.4616 Q2572.5781,542.4616 2571.9844,542.7428 Q2571.4063,543.0241 2570.9531,543.6491 Q2570.5,544.2741 2570.5,545.1334 L2570.5,546.0553 Q2570.5,547.0866 2571.3438,547.7741 Q2572.1875,548.4616 2573.6875,548.4616 Q2574.5781,548.4616 2575.2031,548.2584 Q2575.5625,548.1491 2575.9688,547.7897 Q2576.2344,547.5866 2576.375,547.5241 Q2576.5156,547.4616 2576.6875,547.4616 Q2577.0156,547.4616 2577.25,547.7272 Q2577.5,547.9772 2577.5,548.3366 Q2577.5,548.6803 2577.1563,549.0866 Q2576.6563,549.6803 2575.8594,550.0084 Q2574.8125,550.4616 2573.5313,550.4616 Q2572.0313,550.4616 2570.8281,549.8678 Q2569.8594,549.3991 2569.1719,548.3834 Q2568.5,547.3678 2568.5,546.1647 L2568.5,545.0709 Q2568.5,543.8209 2569.0938,542.7272 Q2569.7031,541.6334 2570.75,541.0553 Q2571.8125,540.4616 2573,540.4616 Q2573.7188,540.4616 2574.3438,540.7116 Q2574.9688,540.9616 2575.5,541.4616 Z " fill="#000000"/><text fill="#000000" font-family="sans-serif" font-size="12" font-style="italic" lengthAdjust="spacing" textLength="81" x="2599.5" y="541.067">«value object»</text><text fill="#000000" font-family="sans-serif" font-size="14" lengthAdjust="spacing" textLength="105" x="2587.5" y="558.237">TempoDescarga</text><line style="stroke:#181818;stroke-width:0.5;" x1="2559.5" x2="2694.5" y1="566.3131" y2="566.3131"/></g><!--MD5=[74b0ff4011e3a902ffdd943a9de9aad8]
class Rota--><g id="elem_Rota"><rect codeLine="107" fill="#F1F1F1" height="85.9219" id="Rota" rx="2.5" ry="2.5" style="stroke:#181818;stroke-width:0.5;" width="144" x="757" y="126.61"/><ellipse cx="809.25" cy="147.9616" fill="#ADD1B2" rx="11" ry="11" style="stroke:#181818;stroke-width:1.0;"/><path d="M811.25,144.4616 Q811.4531,143.9616 811.6875,143.7116 Q811.9219,143.4616 812.1875,143.4616 Q812.6563,143.4616 812.9531,143.7428 Q813.25,144.0241 813.25,144.6803 L813.25,146.2428 Q813.25,146.8991 812.9688,147.1803 Q812.6875,147.4616 812.25,147.4616 Q811.8594,147.4616 811.6094,147.2897 Q811.3594,147.1178 811.25,146.6647 Q811.2031,146.3522 811.0313,146.1803 Q810.7188,145.8522 810.1563,145.6647 Q809.5938,145.4616 809.0313,145.4616 Q808.3281,145.4616 807.7344,145.7428 Q807.1563,146.0241 806.7031,146.6491 Q806.25,147.2741 806.25,148.1334 L806.25,149.0553 Q806.25,150.0866 807.0938,150.7741 Q807.9375,151.4616 809.4375,151.4616 Q810.3281,151.4616 810.9531,151.2584 Q811.3125,151.1491 811.7188,150.7897 Q811.9844,150.5866 812.125,150.5241 Q812.2656,150.4616 812.4375,150.4616 Q812.7656,150.4616 813,150.7272 Q813.25,150.9772 813.25,151.3366 Q813.25,151.6803 812.9063,152.0866 Q812.4063,152.6803 811.6094,153.0084 Q810.5625,153.4616 809.2813,153.4616 Q807.7813,153.4616 806.5781,152.8678 Q805.6094,152.3991 804.9219,151.3834 Q804.25,150.3678 804.25,149.1647 L804.25,148.0709 Q804.25,146.8209 804.8438,145.7272 Q805.4531,144.6334 806.5,144.0553 Q807.5625,143.4616 808.75,143.4616 Q809.4688,143.4616 810.0938,143.7116 Q810.7188,143.9616 811.25,144.4616 Z " fill="#000000"/><text fill="#000000" font-family="sans-serif" font-size="12" font-style="italic" lengthAdjust="spacing" textLength="35" x="827.75" y="144.067">«root»</text><text fill="#000000" font-family="sans-serif" font-size="14" lengthAdjust="spacing" textLength="30" x="830.25" y="161.237">Rota</text><line style="stroke:#181818;stroke-width:0.5;" x1="758" x2="900" y1="169.3131" y2="169.3131"/><text fill="#000000" font-family="sans-serif" font-size="14" lengthAdjust="spacing" textLength="119" x="763" y="187.8463">-idArmazemPartida</text><text fill="#000000" font-family="sans-serif" font-size="14" lengthAdjust="spacing" textLength="132" x="763" y="205.4557">-idArmazemChegada</text></g><!--MD5=[78f2e7ba0f5dad4db558365ae1495a75]
class Distancia--><g id="elem_Distancia"><rect codeLine="114" fill="#F1F1F1" height="50.7031" id="Distancia" rx="2.5" ry="2.5" style="stroke:#181818;stroke-width:0.5;" width="109" x="596.5" y="350.11"/><ellipse cx="611.5" cy="371.4616" fill="#ADD1B2" rx="11" ry="11" style="stroke:#181818;stroke-width:1.0;"/><path d="M613.5,367.9616 Q613.7031,367.4616 613.9375,367.2116 Q614.1719,366.9616 614.4375,366.9616 Q614.9063,366.9616 615.2031,367.2428 Q615.5,367.5241 615.5,368.1803 L615.5,369.7428 Q615.5,370.3991 615.2188,370.6803 Q614.9375,370.9616 614.5,370.9616 Q614.1094,370.9616 613.8594,370.7897 Q613.6094,370.6178 613.5,370.1647 Q613.4531,369.8522 613.2813,369.6803 Q612.9688,369.3522 612.4063,369.1647 Q611.8438,368.9616 611.2813,368.9616 Q610.5781,368.9616 609.9844,369.2428 Q609.4063,369.5241 608.9531,370.1491 Q608.5,370.7741 608.5,371.6334 L608.5,372.5553 Q608.5,373.5866 609.3438,374.2741 Q610.1875,374.9616 611.6875,374.9616 Q612.5781,374.9616 613.2031,374.7584 Q613.5625,374.6491 613.9688,374.2897 Q614.2344,374.0866 614.375,374.0241 Q614.5156,373.9616 614.6875,373.9616 Q615.0156,373.9616 615.25,374.2272 Q615.5,374.4772 615.5,374.8366 Q615.5,375.1803 615.1563,375.5866 Q614.6563,376.1803 613.8594,376.5084 Q612.8125,376.9616 611.5313,376.9616 Q610.0313,376.9616 608.8281,376.3678 Q607.8594,375.8991 607.1719,374.8834 Q606.5,373.8678 606.5,372.6647 L606.5,371.5709 Q606.5,370.3209 607.0938,369.2272 Q607.7031,368.1334 608.75,367.5553 Q609.8125,366.9616 611,366.9616 Q611.7188,366.9616 612.3438,367.2116 Q612.9688,367.4616 613.5,367.9616 Z " fill="#000000"/><text fill="#000000" font-family="sans-serif" font-size="12" font-style="italic" lengthAdjust="spacing" textLength="81" x="623.5" y="367.567">«value object»</text><text fill="#000000" font-family="sans-serif" font-size="14" lengthAdjust="spacing" textLength="58" x="635" y="384.737">Distancia</text><line style="stroke:#181818;stroke-width:0.5;" x1="597.5" x2="704.5" y1="392.8131" y2="392.8131"/></g><!--MD5=[da5e7ef86f6a8eba049043a404c6a85f]
class TempoViagemCheio--><g id="elem_TempoViagemCheio"><rect codeLine="120" fill="#F1F1F1" height="50.7031" id="TempoViagemCheio" rx="2.5" ry="2.5" style="stroke:#181818;stroke-width:0.5;" width="160" x="741" y="350.11"/><ellipse cx="756" cy="371.4616" fill="#ADD1B2" rx="11" ry="11" style="stroke:#181818;stroke-width:1.0;"/><path d="M758,367.9616 Q758.2031,367.4616 758.4375,367.2116 Q758.6719,366.9616 758.9375,366.9616 Q759.4063,366.9616 759.7031,367.2428 Q760,367.5241 760,368.1803 L760,369.7428 Q760,370.3991 759.7188,370.6803 Q759.4375,370.9616 759,370.9616 Q758.6094,370.9616 758.3594,370.7897 Q758.1094,370.6178 758,370.1647 Q757.9531,369.8522 757.7813,369.6803 Q757.4688,369.3522 756.9063,369.1647 Q756.3438,368.9616 755.7813,368.9616 Q755.0781,368.9616 754.4844,369.2428 Q753.9063,369.5241 753.4531,370.1491 Q753,370.7741 753,371.6334 L753,372.5553 Q753,373.5866 753.8438,374.2741 Q754.6875,374.9616 756.1875,374.9616 Q757.0781,374.9616 757.7031,374.7584 Q758.0625,374.6491 758.4688,374.2897 Q758.7344,374.0866 758.875,374.0241 Q759.0156,373.9616 759.1875,373.9616 Q759.5156,373.9616 759.75,374.2272 Q760,374.4772 760,374.8366 Q760,375.1803 759.6563,375.5866 Q759.1563,376.1803 758.3594,376.5084 Q757.3125,376.9616 756.0313,376.9616 Q754.5313,376.9616 753.3281,376.3678 Q752.3594,375.8991 751.6719,374.8834 Q751,373.8678 751,372.6647 L751,371.5709 Q751,370.3209 751.5938,369.2272 Q752.2031,368.1334 753.25,367.5553 Q754.3125,366.9616 755.5,366.9616 Q756.2188,366.9616 756.8438,367.2116 Q757.4688,367.4616 758,367.9616 Z " fill="#000000"/><text fill="#000000" font-family="sans-serif" font-size="12" font-style="italic" lengthAdjust="spacing" textLength="81" x="793.5" y="367.567">«value object»</text><text fill="#000000" font-family="sans-serif" font-size="14" lengthAdjust="spacing" textLength="128" x="770" y="384.737">TempoViagemCheio</text><line style="stroke:#181818;stroke-width:0.5;" x1="742" x2="900" y1="392.8131" y2="392.8131"/></g><!--MD5=[66cdd254363846ebe0811f12d3bc6355]
class EnergiaGasta--><g id="elem_EnergiaGasta"><rect codeLine="126" fill="#F1F1F1" height="50.7031" id="EnergiaGasta" rx="2.5" ry="2.5" style="stroke:#181818;stroke-width:0.5;" width="119" x="208.5" y="350.11"/><ellipse cx="223.5" cy="371.4616" fill="#ADD1B2" rx="11" ry="11" style="stroke:#181818;stroke-width:1.0;"/><path d="M225.5,367.9616 Q225.7031,367.4616 225.9375,367.2116 Q226.1719,366.9616 226.4375,366.9616 Q226.9063,366.9616 227.2031,367.2428 Q227.5,367.5241 227.5,368.1803 L227.5,369.7428 Q227.5,370.3991 227.2188,370.6803 Q226.9375,370.9616 226.5,370.9616 Q226.1094,370.9616 225.8594,370.7897 Q225.6094,370.6178 225.5,370.1647 Q225.4531,369.8522 225.2813,369.6803 Q224.9688,369.3522 224.4063,369.1647 Q223.8438,368.9616 223.2813,368.9616 Q222.5781,368.9616 221.9844,369.2428 Q221.4063,369.5241 220.9531,370.1491 Q220.5,370.7741 220.5,371.6334 L220.5,372.5553 Q220.5,373.5866 221.3438,374.2741 Q222.1875,374.9616 223.6875,374.9616 Q224.5781,374.9616 225.2031,374.7584 Q225.5625,374.6491 225.9688,374.2897 Q226.2344,374.0866 226.375,374.0241 Q226.5156,373.9616 226.6875,373.9616 Q227.0156,373.9616 227.25,374.2272 Q227.5,374.4772 227.5,374.8366 Q227.5,375.1803 227.1563,375.5866 Q226.6563,376.1803 225.8594,376.5084 Q224.8125,376.9616 223.5313,376.9616 Q222.0313,376.9616 220.8281,376.3678 Q219.8594,375.8991 219.1719,374.8834 Q218.5,373.8678 218.5,372.6647 L218.5,371.5709 Q218.5,370.3209 219.0938,369.2272 Q219.7031,368.1334 220.75,367.5553 Q221.8125,366.9616 223,366.9616 Q223.7188,366.9616 224.3438,367.2116 Q224.9688,367.4616 225.5,367.9616 Z " fill="#000000"/><text fill="#000000" font-family="sans-serif" font-size="12" font-style="italic" lengthAdjust="spacing" textLength="81" x="240.5" y="367.567">«value object»</text><text fill="#000000" font-family="sans-serif" font-size="14" lengthAdjust="spacing" textLength="87" x="237.5" y="384.737">EnergiaGasta</text><line style="stroke:#181818;stroke-width:0.5;" x1="209.5" x2="326.5" y1="392.8131" y2="392.8131"/></g><!--MD5=[b6c7f6976f2bbfbaf0c35d86dcd6bfe9]
class TempoCarregamentoExtra--><g id="elem_TempoCarregamentoExtra"><rect codeLine="132" fill="#F1F1F1" height="50.7031" id="TempoCarregamentoExtra" rx="2.5" ry="2.5" style="stroke:#181818;stroke-width:0.5;" width="199" x="362.5" y="350.11"/><ellipse cx="377.5" cy="371.4616" fill="#ADD1B2" rx="11" ry="11" style="stroke:#181818;stroke-width:1.0;"/><path d="M379.5,367.9616 Q379.7031,367.4616 379.9375,367.2116 Q380.1719,366.9616 380.4375,366.9616 Q380.9063,366.9616 381.2031,367.2428 Q381.5,367.5241 381.5,368.1803 L381.5,369.7428 Q381.5,370.3991 381.2188,370.6803 Q380.9375,370.9616 380.5,370.9616 Q380.1094,370.9616 379.8594,370.7897 Q379.6094,370.6178 379.5,370.1647 Q379.4531,369.8522 379.2813,369.6803 Q378.9688,369.3522 378.4063,369.1647 Q377.8438,368.9616 377.2813,368.9616 Q376.5781,368.9616 375.9844,369.2428 Q375.4063,369.5241 374.9531,370.1491 Q374.5,370.7741 374.5,371.6334 L374.5,372.5553 Q374.5,373.5866 375.3438,374.2741 Q376.1875,374.9616 377.6875,374.9616 Q378.5781,374.9616 379.2031,374.7584 Q379.5625,374.6491 379.9688,374.2897 Q380.2344,374.0866 380.375,374.0241 Q380.5156,373.9616 380.6875,373.9616 Q381.0156,373.9616 381.25,374.2272 Q381.5,374.4772 381.5,374.8366 Q381.5,375.1803 381.1563,375.5866 Q380.6563,376.1803 379.8594,376.5084 Q378.8125,376.9616 377.5313,376.9616 Q376.0313,376.9616 374.8281,376.3678 Q373.8594,375.8991 373.1719,374.8834 Q372.5,373.8678 372.5,372.6647 L372.5,371.5709 Q372.5,370.3209 373.0938,369.2272 Q373.7031,368.1334 374.75,367.5553 Q375.8125,366.9616 377,366.9616 Q377.7188,366.9616 378.3438,367.2116 Q378.9688,367.4616 379.5,367.9616 Z " fill="#000000"/><text fill="#000000" font-family="sans-serif" font-size="12" font-style="italic" lengthAdjust="spacing" textLength="81" x="434.5" y="367.567">«value object»</text><text fill="#000000" font-family="sans-serif" font-size="14" lengthAdjust="spacing" textLength="167" x="391.5" y="384.737">TempoCarregamentoExtra</text><line style="stroke:#181818;stroke-width:0.5;" x1="363.5" x2="560.5" y1="392.8131" y2="392.8131"/></g><!--MD5=[5dbd51d0631911ae9de62b4db946babe]
class Camiao--><g id="elem_Camiao"><rect codeLine="148" fill="#F1F1F1" height="68.3125" id="Camiao" rx="2.5" ry="2.5" style="stroke:#181818;stroke-width:0.5;" width="80" x="1565" y="135.61"/><ellipse cx="1580" cy="156.9616" fill="#ADD1B2" rx="11" ry="11" style="stroke:#181818;stroke-width:1.0;"/><path d="M1582,153.4616 Q1582.2031,152.9616 1582.4375,152.7116 Q1582.6719,152.4616 1582.9375,152.4616 Q1583.4063,152.4616 1583.7031,152.7428 Q1584,153.0241 1584,153.6803 L1584,155.2428 Q1584,155.8991 1583.7188,156.1803 Q1583.4375,156.4616 1583,156.4616 Q1582.6094,156.4616 1582.3594,156.2897 Q1582.1094,156.1178 1582,155.6647 Q1581.9531,155.3522 1581.7813,155.1803 Q1581.4688,154.8522 1580.9063,154.6647 Q1580.3438,154.4616 1579.7813,154.4616 Q1579.0781,154.4616 1578.4844,154.7428 Q1577.9063,155.0241 1577.4531,155.6491 Q1577,156.2741 1577,157.1334 L1577,158.0553 Q1577,159.0866 1577.8438,159.7741 Q1578.6875,160.4616 1580.1875,160.4616 Q1581.0781,160.4616 1581.7031,160.2584 Q1582.0625,160.1491 1582.4688,159.7897 Q1582.7344,159.5866 1582.875,159.5241 Q1583.0156,159.4616 1583.1875,159.4616 Q1583.5156,159.4616 1583.75,159.7272 Q1584,159.9772 1584,160.3366 Q1584,160.6803 1583.6563,161.0866 Q1583.1563,161.6803 1582.3594,162.0084 Q1581.3125,162.4616 1580.0313,162.4616 Q1578.5313,162.4616 1577.3281,161.8678 Q1576.3594,161.3991 1575.6719,160.3834 Q1575,159.3678 1575,158.1647 L1575,157.0709 Q1575,155.8209 1575.5938,154.7272 Q1576.2031,153.6334 1577.25,153.0553 Q1578.3125,152.4616 1579.5,152.4616 Q1580.2188,152.4616 1580.8438,152.7116 Q1581.4688,152.9616 1582,153.4616 Z " fill="#000000"/><text fill="#000000" font-family="sans-serif" font-size="12" font-style="italic" lengthAdjust="spacing" textLength="35" x="1600.5" y="153.067">«root»</text><text fill="#000000" font-family="sans-serif" font-size="14" lengthAdjust="spacing" textLength="48" x="1594" y="170.237">Camiao</text><line style="stroke:#181818;stroke-width:0.5;" x1="1566" x2="1644" y1="178.3131" y2="178.3131"/><text fill="#000000" font-family="sans-serif" font-size="14" lengthAdjust="spacing" textLength="16" x="1571" y="196.8463">-id</text></g><!--MD5=[52011726c7830900a84bc98a2049d9dc]
class Tara--><g id="elem_Tara"><rect codeLine="155" fill="#F1F1F1" height="50.7031" id="Tara" rx="2.5" ry="2.5" style="stroke:#181818;stroke-width:0.5;" width="109" x="1803.5" y="350.11"/><ellipse cx="1818.5" cy="371.4616" fill="#ADD1B2" rx="11" ry="11" style="stroke:#181818;stroke-width:1.0;"/><path d="M1820.5,367.9616 Q1820.7031,367.4616 1820.9375,367.2116 Q1821.1719,366.9616 1821.4375,366.9616 Q1821.9063,366.9616 1822.2031,367.2428 Q1822.5,367.5241 1822.5,368.1803 L1822.5,369.7428 Q1822.5,370.3991 1822.2188,370.6803 Q1821.9375,370.9616 1821.5,370.9616 Q1821.1094,370.9616 1820.8594,370.7897 Q1820.6094,370.6178 1820.5,370.1647 Q1820.4531,369.8522 1820.2813,369.6803 Q1819.9688,369.3522 1819.4063,369.1647 Q1818.8438,368.9616 1818.2813,368.9616 Q1817.5781,368.9616 1816.9844,369.2428 Q1816.4063,369.5241 1815.9531,370.1491 Q1815.5,370.7741 1815.5,371.6334 L1815.5,372.5553 Q1815.5,373.5866 1816.3438,374.2741 Q1817.1875,374.9616 1818.6875,374.9616 Q1819.5781,374.9616 1820.2031,374.7584 Q1820.5625,374.6491 1820.9688,374.2897 Q1821.2344,374.0866 1821.375,374.0241 Q1821.5156,373.9616 1821.6875,373.9616 Q1822.0156,373.9616 1822.25,374.2272 Q1822.5,374.4772 1822.5,374.8366 Q1822.5,375.1803 1822.1563,375.5866 Q1821.6563,376.1803 1820.8594,376.5084 Q1819.8125,376.9616 1818.5313,376.9616 Q1817.0313,376.9616 1815.8281,376.3678 Q1814.8594,375.8991 1814.1719,374.8834 Q1813.5,373.8678 1813.5,372.6647 L1813.5,371.5709 Q1813.5,370.3209 1814.0938,369.2272 Q1814.7031,368.1334 1815.75,367.5553 Q1816.8125,366.9616 1818,366.9616 Q1818.7188,366.9616 1819.3438,367.2116 Q1819.9688,367.4616 1820.5,367.9616 Z " fill="#000000"/><text fill="#000000" font-family="sans-serif" font-size="12" font-style="italic" lengthAdjust="spacing" textLength="81" x="1830.5" y="367.567">«value object»</text><text fill="#000000" font-family="sans-serif" font-size="14" lengthAdjust="spacing" textLength="30" x="1856" y="384.737">Tara</text><line style="stroke:#181818;stroke-width:0.5;" x1="1804.5" x2="1911.5" y1="392.8131" y2="392.8131"/></g><!--MD5=[e99f36256feee26426d5d01661b6a561]
class Matrícula--><g id="elem_Matrícula"><rect codeLine="161" fill="#F1F1F1" height="50.7031" id="Matrícula" rx="2.5" ry="2.5" style="stroke:#181818;stroke-width:0.5;" width="109" x="1947.5" y="350.11"/><ellipse cx="1962.5" cy="371.4616" fill="#ADD1B2" rx="11" ry="11" style="stroke:#181818;stroke-width:1.0;"/><path d="M1964.5,367.9616 Q1964.7031,367.4616 1964.9375,367.2116 Q1965.1719,366.9616 1965.4375,366.9616 Q1965.9063,366.9616 1966.2031,367.2428 Q1966.5,367.5241 1966.5,368.1803 L1966.5,369.7428 Q1966.5,370.3991 1966.2188,370.6803 Q1965.9375,370.9616 1965.5,370.9616 Q1965.1094,370.9616 1964.8594,370.7897 Q1964.6094,370.6178 1964.5,370.1647 Q1964.4531,369.8522 1964.2813,369.6803 Q1963.9688,369.3522 1963.4063,369.1647 Q1962.8438,368.9616 1962.2813,368.9616 Q1961.5781,368.9616 1960.9844,369.2428 Q1960.4063,369.5241 1959.9531,370.1491 Q1959.5,370.7741 1959.5,371.6334 L1959.5,372.5553 Q1959.5,373.5866 1960.3438,374.2741 Q1961.1875,374.9616 1962.6875,374.9616 Q1963.5781,374.9616 1964.2031,374.7584 Q1964.5625,374.6491 1964.9688,374.2897 Q1965.2344,374.0866 1965.375,374.0241 Q1965.5156,373.9616 1965.6875,373.9616 Q1966.0156,373.9616 1966.25,374.2272 Q1966.5,374.4772 1966.5,374.8366 Q1966.5,375.1803 1966.1563,375.5866 Q1965.6563,376.1803 1964.8594,376.5084 Q1963.8125,376.9616 1962.5313,376.9616 Q1961.0313,376.9616 1959.8281,376.3678 Q1958.8594,375.8991 1958.1719,374.8834 Q1957.5,373.8678 1957.5,372.6647 L1957.5,371.5709 Q1957.5,370.3209 1958.0938,369.2272 Q1958.7031,368.1334 1959.75,367.5553 Q1960.8125,366.9616 1962,366.9616 Q1962.7188,366.9616 1963.3438,367.2116 Q1963.9688,367.4616 1964.5,367.9616 Z " fill="#000000"/><text fill="#000000" font-family="sans-serif" font-size="12" font-style="italic" lengthAdjust="spacing" textLength="81" x="1974.5" y="367.567">«value object»</text><text fill="#000000" font-family="sans-serif" font-size="14" lengthAdjust="spacing" textLength="57" x="1986.5" y="384.737">Matrícula</text><line style="stroke:#181818;stroke-width:0.5;" x1="1948.5" x2="2055.5" y1="392.8131" y2="392.8131"/></g><!--MD5=[0cf05e35a3c4d32f23a46f626c139267]
class Capacidade--><g id="elem_Capacidade"><rect codeLine="167" fill="#F1F1F1" height="50.7031" id="Capacidade" rx="2.5" ry="2.5" style="stroke:#181818;stroke-width:0.5;" width="109" x="2091.5" y="350.11"/><ellipse cx="2106.5" cy="371.4616" fill="#ADD1B2" rx="11" ry="11" style="stroke:#181818;stroke-width:1.0;"/><path d="M2108.5,367.9616 Q2108.7031,367.4616 2108.9375,367.2116 Q2109.1719,366.9616 2109.4375,366.9616 Q2109.9063,366.9616 2110.2031,367.2428 Q2110.5,367.5241 2110.5,368.1803 L2110.5,369.7428 Q2110.5,370.3991 2110.2188,370.6803 Q2109.9375,370.9616 2109.5,370.9616 Q2109.1094,370.9616 2108.8594,370.7897 Q2108.6094,370.6178 2108.5,370.1647 Q2108.4531,369.8522 2108.2813,369.6803 Q2107.9688,369.3522 2107.4063,369.1647 Q2106.8438,368.9616 2106.2813,368.9616 Q2105.5781,368.9616 2104.9844,369.2428 Q2104.4063,369.5241 2103.9531,370.1491 Q2103.5,370.7741 2103.5,371.6334 L2103.5,372.5553 Q2103.5,373.5866 2104.3438,374.2741 Q2105.1875,374.9616 2106.6875,374.9616 Q2107.5781,374.9616 2108.2031,374.7584 Q2108.5625,374.6491 2108.9688,374.2897 Q2109.2344,374.0866 2109.375,374.0241 Q2109.5156,373.9616 2109.6875,373.9616 Q2110.0156,373.9616 2110.25,374.2272 Q2110.5,374.4772 2110.5,374.8366 Q2110.5,375.1803 2110.1563,375.5866 Q2109.6563,376.1803 2108.8594,376.5084 Q2107.8125,376.9616 2106.5313,376.9616 Q2105.0313,376.9616 2103.8281,376.3678 Q2102.8594,375.8991 2102.1719,374.8834 Q2101.5,373.8678 2101.5,372.6647 L2101.5,371.5709 Q2101.5,370.3209 2102.0938,369.2272 Q2102.7031,368.1334 2103.75,367.5553 Q2104.8125,366.9616 2106,366.9616 Q2106.7188,366.9616 2107.3438,367.2116 Q2107.9688,367.4616 2108.5,367.9616 Z " fill="#000000"/><text fill="#000000" font-family="sans-serif" font-size="12" font-style="italic" lengthAdjust="spacing" textLength="81" x="2118.5" y="367.567">«value object»</text><text fill="#000000" font-family="sans-serif" font-size="14" lengthAdjust="spacing" textLength="76" x="2121" y="384.737">Capacidade</text><line style="stroke:#181818;stroke-width:0.5;" x1="2092.5" x2="2199.5" y1="392.8131" y2="392.8131"/></g><!--MD5=[1ae59781e5d61c949b739d02f51cca2f]
class CargaBateria--><g id="elem_CargaBateria"><rect codeLine="173" fill="#F1F1F1" height="50.7031" id="CargaBateria" rx="2.5" ry="2.5" style="stroke:#181818;stroke-width:0.5;" width="116" x="2236" y="350.11"/><ellipse cx="2251" cy="371.4616" fill="#ADD1B2" rx="11" ry="11" style="stroke:#181818;stroke-width:1.0;"/><path d="M2253,367.9616 Q2253.2031,367.4616 2253.4375,367.2116 Q2253.6719,366.9616 2253.9375,366.9616 Q2254.4063,366.9616 2254.7031,367.2428 Q2255,367.5241 2255,368.1803 L2255,369.7428 Q2255,370.3991 2254.7188,370.6803 Q2254.4375,370.9616 2254,370.9616 Q2253.6094,370.9616 2253.3594,370.7897 Q2253.1094,370.6178 2253,370.1647 Q2252.9531,369.8522 2252.7813,369.6803 Q2252.4688,369.3522 2251.9063,369.1647 Q2251.3438,368.9616 2250.7813,368.9616 Q2250.0781,368.9616 2249.4844,369.2428 Q2248.9063,369.5241 2248.4531,370.1491 Q2248,370.7741 2248,371.6334 L2248,372.5553 Q2248,373.5866 2248.8438,374.2741 Q2249.6875,374.9616 2251.1875,374.9616 Q2252.0781,374.9616 2252.7031,374.7584 Q2253.0625,374.6491 2253.4688,374.2897 Q2253.7344,374.0866 2253.875,374.0241 Q2254.0156,373.9616 2254.1875,373.9616 Q2254.5156,373.9616 2254.75,374.2272 Q2255,374.4772 2255,374.8366 Q2255,375.1803 2254.6563,375.5866 Q2254.1563,376.1803 2253.3594,376.5084 Q2252.3125,376.9616 2251.0313,376.9616 Q2249.5313,376.9616 2248.3281,376.3678 Q2247.3594,375.8991 2246.6719,374.8834 Q2246,373.8678 2246,372.6647 L2246,371.5709 Q2246,370.3209 2246.5938,369.2272 Q2247.2031,368.1334 2248.25,367.5553 Q2249.3125,366.9616 2250.5,366.9616 Q2251.2188,366.9616 2251.8438,367.2116 Q2252.4688,367.4616 2253,367.9616 Z " fill="#000000"/><text fill="#000000" font-family="sans-serif" font-size="12" font-style="italic" lengthAdjust="spacing" textLength="81" x="2266.5" y="367.567">«value object»</text><text fill="#000000" font-family="sans-serif" font-size="14" lengthAdjust="spacing" textLength="84" x="2265" y="384.737">CargaBateria</text><line style="stroke:#181818;stroke-width:0.5;" x1="2237" x2="2351" y1="392.8131" y2="392.8131"/></g><!--MD5=[b31bad78fb42a3989ad3dcc2d714a0e3]
class Autonomia--><g id="elem_Autonomia"><rect codeLine="179" fill="#F1F1F1" height="50.7031" id="Autonomia" rx="2.5" ry="2.5" style="stroke:#181818;stroke-width:0.5;" width="109" x="1411.5" y="350.11"/><ellipse cx="1426.5" cy="371.4616" fill="#ADD1B2" rx="11" ry="11" style="stroke:#181818;stroke-width:1.0;"/><path d="M1428.5,367.9616 Q1428.7031,367.4616 1428.9375,367.2116 Q1429.1719,366.9616 1429.4375,366.9616 Q1429.9063,366.9616 1430.2031,367.2428 Q1430.5,367.5241 1430.5,368.1803 L1430.5,369.7428 Q1430.5,370.3991 1430.2188,370.6803 Q1429.9375,370.9616 1429.5,370.9616 Q1429.1094,370.9616 1428.8594,370.7897 Q1428.6094,370.6178 1428.5,370.1647 Q1428.4531,369.8522 1428.2813,369.6803 Q1427.9688,369.3522 1427.4063,369.1647 Q1426.8438,368.9616 1426.2813,368.9616 Q1425.5781,368.9616 1424.9844,369.2428 Q1424.4063,369.5241 1423.9531,370.1491 Q1423.5,370.7741 1423.5,371.6334 L1423.5,372.5553 Q1423.5,373.5866 1424.3438,374.2741 Q1425.1875,374.9616 1426.6875,374.9616 Q1427.5781,374.9616 1428.2031,374.7584 Q1428.5625,374.6491 1428.9688,374.2897 Q1429.2344,374.0866 1429.375,374.0241 Q1429.5156,373.9616 1429.6875,373.9616 Q1430.0156,373.9616 1430.25,374.2272 Q1430.5,374.4772 1430.5,374.8366 Q1430.5,375.1803 1430.1563,375.5866 Q1429.6563,376.1803 1428.8594,376.5084 Q1427.8125,376.9616 1426.5313,376.9616 Q1425.0313,376.9616 1423.8281,376.3678 Q1422.8594,375.8991 1422.1719,374.8834 Q1421.5,373.8678 1421.5,372.6647 L1421.5,371.5709 Q1421.5,370.3209 1422.0938,369.2272 Q1422.7031,368.1334 1423.75,367.5553 Q1424.8125,366.9616 1426,366.9616 Q1426.7188,366.9616 1427.3438,367.2116 Q1427.9688,367.4616 1428.5,367.9616 Z " fill="#000000"/><text fill="#000000" font-family="sans-serif" font-size="12" font-style="italic" lengthAdjust="spacing" textLength="81" x="1438.5" y="367.567">«value object»</text><text fill="#000000" font-family="sans-serif" font-size="14" lengthAdjust="spacing" textLength="67" x="1445.5" y="384.737">Autonomia</text><line style="stroke:#181818;stroke-width:0.5;" x1="1412.5" x2="1519.5" y1="392.8131" y2="392.8131"/></g><!--MD5=[78ba23767fb25066b122b6dca561b8a2]
class TempoCarregamentoRapido--><g id="elem_TempoCarregamentoRapido"><rect codeLine="185" fill="#F1F1F1" height="50.7031" id="TempoCarregamentoRapido" rx="2.5" ry="2.5" style="stroke:#181818;stroke-width:0.5;" width="212" x="1556" y="350.11"/><ellipse cx="1571" cy="371.4616" fill="#ADD1B2" rx="11" ry="11" style="stroke:#181818;stroke-width:1.0;"/><path d="M1573,367.9616 Q1573.2031,367.4616 1573.4375,367.2116 Q1573.6719,366.9616 1573.9375,366.9616 Q1574.4063,366.9616 1574.7031,367.2428 Q1575,367.5241 1575,368.1803 L1575,369.7428 Q1575,370.3991 1574.7188,370.6803 Q1574.4375,370.9616 1574,370.9616 Q1573.6094,370.9616 1573.3594,370.7897 Q1573.1094,370.6178 1573,370.1647 Q1572.9531,369.8522 1572.7813,369.6803 Q1572.4688,369.3522 1571.9063,369.1647 Q1571.3438,368.9616 1570.7813,368.9616 Q1570.0781,368.9616 1569.4844,369.2428 Q1568.9063,369.5241 1568.4531,370.1491 Q1568,370.7741 1568,371.6334 L1568,372.5553 Q1568,373.5866 1568.8438,374.2741 Q1569.6875,374.9616 1571.1875,374.9616 Q1572.0781,374.9616 1572.7031,374.7584 Q1573.0625,374.6491 1573.4688,374.2897 Q1573.7344,374.0866 1573.875,374.0241 Q1574.0156,373.9616 1574.1875,373.9616 Q1574.5156,373.9616 1574.75,374.2272 Q1575,374.4772 1575,374.8366 Q1575,375.1803 1574.6563,375.5866 Q1574.1563,376.1803 1573.3594,376.5084 Q1572.3125,376.9616 1571.0313,376.9616 Q1569.5313,376.9616 1568.3281,376.3678 Q1567.3594,375.8991 1566.6719,374.8834 Q1566,373.8678 1566,372.6647 L1566,371.5709 Q1566,370.3209 1566.5938,369.2272 Q1567.2031,368.1334 1568.25,367.5553 Q1569.3125,366.9616 1570.5,366.9616 Q1571.2188,366.9616 1571.8438,367.2116 Q1572.4688,367.4616 1573,367.9616 Z " fill="#000000"/><text fill="#000000" font-family="sans-serif" font-size="12" font-style="italic" lengthAdjust="spacing" textLength="81" x="1634.5" y="367.567">«value object»</text><text fill="#000000" font-family="sans-serif" font-size="14" lengthAdjust="spacing" textLength="180" x="1585" y="384.737">TempoCarregamentoRapido</text><line style="stroke:#181818;stroke-width:0.5;" x1="1557" x2="1767" y1="392.8131" y2="392.8131"/></g><!--MD5=[2b22e12cd95ce2d92bb1d3112de184c8]
class PlanoDeEntregas--><g id="elem_PlanoDeEntregas"><rect codeLine="196" fill="#F1F1F1" height="40" id="PlanoDeEntregas" rx="2.5" ry="2.5" style="stroke:#181818;stroke-width:0.5;" width="143" x="1680.5" y="149.61"/><ellipse cx="1695.5" cy="165.61" fill="#ADD1B2" rx="11" ry="11" style="stroke:#181818;stroke-width:1.0;"/><path d="M1697.5,162.11 Q1697.7031,161.61 1697.9375,161.36 Q1698.1719,161.11 1698.4375,161.11 Q1698.9063,161.11 1699.2031,161.3913 Q1699.5,161.6725 1699.5,162.3288 L1699.5,163.8913 Q1699.5,164.5475 1699.2188,164.8288 Q1698.9375,165.11 1698.5,165.11 Q1698.1094,165.11 1697.8594,164.9381 Q1697.6094,164.7663 1697.5,164.3131 Q1697.4531,164.0006 1697.2813,163.8288 Q1696.9688,163.5006 1696.4063,163.3131 Q1695.8438,163.11 1695.2813,163.11 Q1694.5781,163.11 1693.9844,163.3913 Q1693.4063,163.6725 1692.9531,164.2975 Q1692.5,164.9225 1692.5,165.7819 L1692.5,166.7038 Q1692.5,167.735 1693.3438,168.4225 Q1694.1875,169.11 1695.6875,169.11 Q1696.5781,169.11 1697.2031,168.9069 Q1697.5625,168.7975 1697.9688,168.4381 Q1698.2344,168.235 1698.375,168.1725 Q1698.5156,168.11 1698.6875,168.11 Q1699.0156,168.11 1699.25,168.3756 Q1699.5,168.6256 1699.5,168.985 Q1699.5,169.3288 1699.1563,169.735 Q1698.6563,170.3288 1697.8594,170.6569 Q1696.8125,171.11 1695.5313,171.11 Q1694.0313,171.11 1692.8281,170.5163 Q1691.8594,170.0475 1691.1719,169.0319 Q1690.5,168.0163 1690.5,166.8131 L1690.5,165.7194 Q1690.5,164.4694 1691.0938,163.3756 Q1691.7031,162.2819 1692.75,161.7038 Q1693.8125,161.11 1695,161.11 Q1695.7188,161.11 1696.3438,161.36 Q1696.9688,161.61 1697.5,162.11 Z " fill="#000000"/><text fill="#000000" font-family="sans-serif" font-size="14" lengthAdjust="spacing" textLength="111" x="1709.5" y="171.3385">PlanoDeEntregas</text><line style="stroke:#181818;stroke-width:0.5;" x1="1681.5" x2="1822.5" y1="181.61" y2="181.61"/></g><!--MD5=[94842d62618c82aac7db7fc835917ece]
link Armazem to Endereco--><g id="link_Armazem_Endereco"><path codeLine="41" d="M1122.1,409.68 C1126.6,428.05 1132.39,451.68 1137.9,474.21 " fill="none" id="Armazem-to-Endereco" style="stroke:#181818;stroke-width:1.0;"/><polygon fill="#181818" points="1139.15,479.3,1140.8746,469.6033,1137.9508,474.4459,1133.1081,471.5221,1139.15,479.3" style="stroke:#181818;stroke-width:1.0;"/><text fill="#000000" font-family="sans-serif" font-size="13" lengthAdjust="spacing" textLength="7" x="1130.0514" y="468.802">1</text></g><!--MD5=[60555acf87e7c5960c2c1ef401ae4606]
link Armazem to Designacao--><g id="link_Armazem_Designacao"><path codeLine="42" d="M1151.18,409.77 C1173.57,429.84 1202.57,456.03 1228,479.61 C1242.1,492.69 1257.58,507.36 1270.55,519.77 " fill="none" id="Armazem-to-Designacao" style="stroke:#181818;stroke-width:1.0;"/><polygon fill="#181818" points="1274.49,523.54,1270.7511,514.4284,1270.8768,520.0839,1265.2213,520.2096,1274.49,523.54" style="stroke:#181818;stroke-width:1.0;"/><text fill="#000000" font-family="sans-serif" font-size="13" lengthAdjust="spacing" textLength="7" x="1260.4188" y="512.9315">1</text></g><!--MD5=[75293945321368f6389bdd0a7a0e67f5]
link Armazem to Localizacao--><g id="link_Armazem_Localizacao"><path codeLine="43" d="M1094.33,409.68 C1078.84,435.73 1057.04,472.38 1039.77,501.43 " fill="none" id="Armazem-to-Localizacao" style="stroke:#181818;stroke-width:1.0;"/><polygon fill="#181818" points="1037.03,506.02,1045.0765,500.3408,1039.5919,501.7262,1038.2065,496.2417,1037.03,506.02" style="stroke:#181818;stroke-width:1.0;"/><text fill="#000000" font-family="sans-serif" font-size="13" lengthAdjust="spacing" textLength="7" x="1033.4613" y="495.4069">1</text></g><!--MD5=[0cd1a67ebe87fa4ab6ef4c5845e5f1b3]
link Loja to Municipio--><g id="link_Loja_Municipio"><path codeLine="59" d="M84.91,203.92 C83.86,216.09 82.77,229.96 82,242.61 C79.88,277.59 78.51,317.84 77.75,344.61 " fill="none" id="Loja-to-Municipio" style="stroke:#181818;stroke-width:1.0;"/><polygon fill="#181818" points="77.61,349.78,81.8661,340.8983,77.7532,344.7821,73.8694,340.6691,77.61,349.78" style="stroke:#181818;stroke-width:1.0;"/><text fill="#000000" font-family="sans-serif" font-size="13" lengthAdjust="spacing" textLength="7" x="69.9056" y="339.1081">1</text></g><!--MD5=[4d6c205197cdfe42463a9421471a7aa3]
link Entrega to Data--><g id="link_Entrega_Data"><path codeLine="98" d="M2666.06,419 C2686.7,441.41 2712.28,469.18 2734.43,493.22 " fill="none" id="Entrega-to-Data" style="stroke:#181818;stroke-width:1.0;"/><polygon fill="#181818" points="2737.95,497.04,2734.7892,487.7121,2734.5604,493.3643,2728.9082,493.1355,2737.95,497.04" style="stroke:#181818;stroke-width:1.0;"/><text fill="#000000" font-family="sans-serif" font-size="13" lengthAdjust="spacing" textLength="7" x="2723.8414" y="486.1455">1</text></g><!--MD5=[b48014381b33e15b6e9d1ee7bc2c5b93]
link Entrega to Peso--><g id="link_Entrega_Peso"><path codeLine="99" d="M2668.21,390.24 C2715.98,407.1 2795.95,438.67 2857,479.61 C2873.9,490.94 2890.5,506.37 2903.5,519.71 " fill="none" id="Entrega-to-Peso" style="stroke:#181818;stroke-width:1.0;"/><polygon fill="#181818" points="2907.07,523.41,2903.7022,514.1549,2903.5993,519.8108,2897.9434,519.7079,2907.07,523.41" style="stroke:#181818;stroke-width:1.0;"/><text fill="#000000" font-family="sans-serif" font-size="13" lengthAdjust="spacing" textLength="7" x="2893.8714" y="512.7698">1</text></g><!--MD5=[4cb1bc3f5bc0611a8895f55ebae128f8]
link Entrega to TempoCarga--><g id="link_Entrega_TempoCarga"><path codeLine="100" d="M2587.2,419 C2557.91,450.2 2518.87,491.79 2493.11,519.23 " fill="none" id="Entrega-to-TempoCarga" style="stroke:#181818;stroke-width:1.0;"/><polygon fill="#181818" points="2489.41,523.18,2498.4836,519.3499,2492.8297,519.5323,2492.6473,513.8784,2489.41,523.18" style="stroke:#181818;stroke-width:1.0;"/><text fill="#000000" font-family="sans-serif" font-size="13" lengthAdjust="spacing" textLength="7" x="2487.0142" y="512.9038">1</text></g><!--MD5=[913bc12f3e2642eae9d92b92693e5e88]
link Entrega to TempoDescarga--><g id="link_Entrega_TempoDescarga"><path codeLine="101" d="M2627,419 C2627,449.69 2627,490.43 2627,517.87 " fill="none" id="Entrega-to-TempoDescarga" style="stroke:#181818;stroke-width:1.0;"/><polygon fill="#181818" points="2627,523.18,2631,514.18,2627,518.18,2623,514.18,2627,523.18" style="stroke:#181818;stroke-width:1.0;"/><text fill="#000000" font-family="sans-serif" font-size="13" lengthAdjust="spacing" textLength="7" x="2619.1906" y="512.9038">1</text></g><!--MD5=[373d921578b99caa638fbaed58c973f3]
link Rota to Distancia--><g id="link_Rota_Distancia"><path codeLine="138" d="M778.71,212.82 C760.29,229.36 739.84,249.04 723,268.61 C702.05,292.95 681.83,323.55 668.18,345.61 " fill="none" id="Rota-to-Distancia" style="stroke:#181818;stroke-width:1.0;"/><polygon fill="#181818" points="665.54,349.9,673.6583,344.3239,668.1565,345.6393,666.8411,340.1375,665.54,349.9" style="stroke:#181818;stroke-width:1.0;"/><text fill="#000000" font-family="sans-serif" font-size="13" lengthAdjust="spacing" textLength="7" x="661.231" y="339.2573">1</text></g><!--MD5=[aba929e63dfbdfb1c7152d44c8155a80]
link Rota to TempoViagemCheio--><g id="link_Rota_TempoViagemCheio"><path codeLine="139" d="M827.34,212.88 C825.8,252.21 823.54,309.82 822.18,344.62 " fill="none" id="Rota-to-TempoViagemCheio" style="stroke:#181818;stroke-width:1.0;"/><polygon fill="#181818" points="821.97,350,826.3013,341.1547,822.1556,345.0034,818.3068,340.8577,821.97,350" style="stroke:#181818;stroke-width:1.0;"/><text fill="#000000" font-family="sans-serif" font-size="13" lengthAdjust="spacing" textLength="7" x="814.3533" y="339.3817">1</text></g><!--MD5=[af56029d70affa06406987683ffe4a30]
link Rota to EnergiaGasta--><g id="link_Rota_EnergiaGasta"><path codeLine="140" d="M756.7,178.74 C639,193.04 412.35,225.33 345,268.61 C316,287.25 294.35,320.97 281.51,345.39 " fill="none" id="Rota-to-EnergiaGasta" style="stroke:#181818;stroke-width:1.0;"/><polygon fill="#181818" points="279.21,349.83,286.8842,343.6569,281.4974,345.3839,279.7704,339.9971,279.21,349.83" style="stroke:#181818;stroke-width:1.0;"/><text fill="#000000" font-family="sans-serif" font-size="13" lengthAdjust="spacing" textLength="7" x="274.0893" y="339.1703">1</text></g><!--MD5=[d5099d181ff9abfa6b8fcf28ec79e063]
link Rota to TempoCarregamentoExtra--><g id="link_Rota_TempoCarregamentoExtra"><path codeLine="141" d="M756.8,191.21 C705.04,207.77 634.87,233.98 579,268.61 C544.06,290.27 509.9,322.93 487.6,346.27 " fill="none" id="Rota-to-TempoCarregamentoExtra" style="stroke:#181818;stroke-width:1.0;"/><polygon fill="#181818" points="484.13,349.93,493.2264,346.1544,487.5715,346.3029,487.423,340.648,484.13,349.93" style="stroke:#181818;stroke-width:1.0;"/><text fill="#000000" font-family="sans-serif" font-size="13" lengthAdjust="spacing" textLength="7" x="481.6711" y="339.2946">1</text></g><!--MD5=[f92274b81a52505db66139106cca2beb]
link Camiao to Tara--><g id="link_Camiao_Tara"><path codeLine="189" d="M1628.9,203.91 C1645.32,224.01 1668.99,248.08 1696,260.61 C1732.43,277.51 1751.38,248.26 1786,268.61 C1815.31,285.84 1835.28,320.27 1846.62,345.22 " fill="none" id="Camiao-to-Tara" style="stroke:#181818;stroke-width:1.0;"/><polygon fill="#181818" points="1848.77,350.08,1848.7757,340.2311,1846.742,345.5098,1841.4633,343.476,1848.77,350.08" style="stroke:#181818;stroke-width:1.0;"/><text fill="#000000" font-family="sans-serif" font-size="13" lengthAdjust="spacing" textLength="7" x="1838.5079" y="339.0661">1</text></g><!--MD5=[93ad388a8aa09dc28414856f23f9bb76]
link Camiao to Matrícula--><g id="link_Camiao_Matrícula"><path codeLine="190" d="M1644.9,203.85 C1659.44,216.01 1675.99,229.9 1691,242.61 C1700.38,250.56 1700.55,256.13 1712,260.61 C1734.57,269.43 1908.79,256.87 1930,268.61 C1959.87,285.14 1979.8,319.94 1990.97,345.16 " fill="none" id="Camiao-to-Matrícula" style="stroke:#181818;stroke-width:1.0;"/><polygon fill="#181818" points="1992.96,349.76,1993.0543,339.9116,1990.9732,345.1717,1985.7131,343.0905,1992.96,349.76" style="stroke:#181818;stroke-width:1.0;"/><text fill="#000000" font-family="sans-serif" font-size="13" lengthAdjust="spacing" textLength="7" x="1982.9034" y="339.0832">1</text></g><!--MD5=[fc944788add457530a96edf1bbab6136]
link Camiao to Capacidade--><g id="link_Camiao_Capacidade"><path codeLine="191" d="M1645.03,200.06 C1651.02,204.33 1657.14,208.62 1663,212.61 C1683.49,226.55 1691.14,226.53 1710,242.61 C1718.14,249.56 1716.29,256.11 1726,260.61 C1761.1,276.86 2040.03,250.12 2074,268.61 C2103.98,284.93 2123.89,319.77 2135.03,345.07 " fill="none" id="Camiao-to-Capacidade" style="stroke:#181818;stroke-width:1.0;"/><polygon fill="#181818" points="2137.01,349.67,2137.1302,339.8219,2135.0352,345.0765,2129.7806,342.9815,2137.01,349.67" style="stroke:#181818;stroke-width:1.0;"/><text fill="#000000" font-family="sans-serif" font-size="13" lengthAdjust="spacing" textLength="7" x="2127.1217" y="339.3915">1</text></g><!--MD5=[375a451ac5f62f7e543501758e25c7cb]
link Camiao to CargaBateria--><g id="link_Camiao_CargaBateria"><path codeLine="192" d="M1645.22,201.21 C1651.07,205.22 1657.11,209.14 1663,212.61 C1690.06,228.56 1704.04,221.17 1727,242.61 C1733.69,248.85 1729.15,255.9 1737,260.61 C1759.92,274.35 2194.33,256.2 2218,268.61 C2248.97,284.84 2270.22,320.05 2282.22,345.44 " fill="none" id="Camiao-to-CargaBateria" style="stroke:#181818;stroke-width:1.0;"/><polygon fill="#181818" points="2284.35,350.06,2284.23,340.2119,2282.2638,345.516,2276.9596,343.5498,2284.35,350.06" style="stroke:#181818;stroke-width:1.0;"/><text fill="#000000" font-family="sans-serif" font-size="13" lengthAdjust="spacing" textLength="7" x="2274.1447" y="339.4563">1</text></g><!--MD5=[a6b0336460f5cc13fe4c8a6c096b5aaf]
link Camiao to Autonomia--><g id="link_Camiao_Autonomia"><path codeLine="193" d="M1582.36,203.84 C1555.52,243.22 1511.25,308.21 1485.75,345.63 " fill="none" id="Camiao-to-Autonomia" style="stroke:#181818;stroke-width:1.0;"/><polygon fill="#181818" points="1482.73,350.05,1491.1044,344.8664,1485.5462,345.9186,1484.4941,340.3604,1482.73,350.05" style="stroke:#181818;stroke-width:1.0;"/><text fill="#000000" font-family="sans-serif" font-size="13" lengthAdjust="spacing" textLength="7" x="1478.9548" y="339.4439">1</text></g><!--MD5=[bb75bf30e90ea4f54334c828c12a4424]
link Camiao to TempoCarregamentoRapido--><g id="link_Camiao_TempoCarregamentoRapido"><path codeLine="194" d="M1614.28,203.84 C1625.24,243.06 1643.3,307.68 1653.77,345.17 " fill="none" id="Camiao-to-TempoCarregamentoRapido" style="stroke:#181818;stroke-width:1.0;"/><polygon fill="#181818" points="1655.14,350.05,1656.5748,340.3062,1653.7966,345.2338,1648.869,342.4556,1655.14,350.05" style="stroke:#181818;stroke-width:1.0;"/><text fill="#000000" font-family="sans-serif" font-size="13" lengthAdjust="spacing" textLength="7" x="1645.6148" y="339.4439">1</text></g><!--MD5=[7e69a0eb498fd4de43b20a1cd3755a94]
link Camiao to Rota--><g id="link_Camiao_Rota"><path codeLine="202" d="M1564.8,169.61 C1440.52,169.61 1061.22,169.61 901.31,169.61 " fill="none" id="Camiao-Rota" style="stroke:#181818;stroke-width:1.0;"/><polygon fill="#000000" points="1208,157.7858,1217.0451,160.7247,1217.0451,154.8469,1208,157.7858" style="stroke:#000000;stroke-width:1.0;"/><text fill="#000000" font-family="sans-serif" font-size="13" lengthAdjust="spacing" textLength="35" x="1222" y="163.1051">segue</text><text fill="#000000" font-family="sans-serif" font-size="13" lengthAdjust="spacing" textLength="7" x="1550.0159" y="184.5336">1</text><text fill="#000000" font-family="sans-serif" font-size="13" lengthAdjust="spacing" textLength="5" x="909.0248" y="166.3023">*</text></g><!--MD5=[2adb119d1ff89c6def056c6e141d06f9]
link Rota to Armazem--><g id="link_Rota_Armazem"><path codeLine="203" d="M901.11,205.94 C921.35,216.84 943,229.46 962,242.61 C1005.39,272.65 1050.48,313.18 1080.16,341.37 " fill="none" id="Rota-Armazem" style="stroke:#181818;stroke-width:1.0;"/><polygon fill="#000000" points="993.9878,254.802,988.5468,247.0016,985.0009,251.6895,993.9878,254.802" style="stroke:#000000;stroke-width:1.0;"/><text fill="#000000" font-family="sans-serif" font-size="13" lengthAdjust="spacing" textLength="39" x="999" y="257.1051">partida</text><text fill="#000000" font-family="sans-serif" font-size="13" lengthAdjust="spacing" textLength="7" x="908.9073" y="206.3788">1</text><text fill="#000000" font-family="sans-serif" font-size="13" lengthAdjust="spacing" textLength="7" x="1066.0421" y="330.8168">1</text></g><!--MD5=[2adb119d1ff89c6def056c6e141d06f9]
link Rota to Armazem--><g id="link_Rota_Armazem"><path codeLine="204" d="M849.27,212.62 C859.38,229.68 873.09,248.24 890,260.61 C900.1,268 905.43,263.84 917,268.61 C971.04,290.88 1029.63,323.6 1068.74,346.79 " fill="none" id="Rota-Armazem-1" style="stroke:#181818;stroke-width:1.0;"/><polygon fill="#000000" points="899.266,254.3937,893.0817,247.1684,890.0158,252.1834,899.266,254.3937" style="stroke:#000000;stroke-width:1.0;"/><text fill="#000000" font-family="sans-serif" font-size="13" lengthAdjust="spacing" textLength="49" x="904" y="257.1051">chegada</text><text fill="#000000" font-family="sans-serif" font-size="13" lengthAdjust="spacing" textLength="7" x="844.8379" y="233.9589">1</text><text fill="#000000" font-family="sans-serif" font-size="13" lengthAdjust="spacing" textLength="7" x="1053.9689" y="356.97">1</text></g><!--MD5=[55b528e5f7893d71f5df18735d0536e0]
link Camiao to Armazem--><g id="link_Camiao_Armazem"><path codeLine="205" d="M1564.87,174.56 C1478.49,183.62 1278.05,207.85 1220,242.61 C1180.28,266.39 1149.32,310.87 1131.36,341.58 " fill="none" id="Camiao-Armazem" style="stroke:#181818;stroke-width:1.0;"/><polygon fill="#000000" points="1220.3343,253.5834,1229.8312,253.0739,1227.718,247.5891,1220.3343,253.5834" style="stroke:#000000;stroke-width:1.0;"/><text fill="#000000" font-family="sans-serif" font-size="13" lengthAdjust="spacing" textLength="53" x="1234" y="257.1051">abastece</text><text fill="#000000" font-family="sans-serif" font-size="13" lengthAdjust="spacing" textLength="7" x="1550.0984" y="171.5153">1</text><text fill="#000000" font-family="sans-serif" font-size="13" lengthAdjust="spacing" textLength="7" x="1127.0887" y="330.8043">1</text></g><!--MD5=[55b528e5f7893d71f5df18735d0536e0]
link Camiao to Armazem--><g id="link_Camiao_Armazem"><path codeLine="206" d="M1564.82,187.3 C1474.24,224.94 1254.6,316.2 1159.33,355.78 " fill="none" id="Camiao-Armazem-1" style="stroke:#181818;stroke-width:1.0;"/><polygon fill="#000000" points="1418.3827,253.7043,1427.8631,252.9477,1425.6078,247.5197,1418.3827,253.7043" style="stroke:#000000;stroke-width:1.0;"/><text fill="#000000" font-family="sans-serif" font-size="13" lengthAdjust="spacing" textLength="43" x="1432" y="257.1051">entrega</text><text fill="#000000" font-family="sans-serif" font-size="13" lengthAdjust="spacing" textLength="7" x="1550.0395" y="205.3746">1</text><text fill="#000000" font-family="sans-serif" font-size="13" lengthAdjust="spacing" textLength="7" x="1167.1123" y="348.8428">1</text></g><!--MD5=[5d3fc112c62f98eabf255c21c0cc7ae3]
link PlanoDeEntregas to Entrega--><g id="link_PlanoDeEntregas_Entrega"><path codeLine="207" d="M1823.82,176.62 C1939.94,187.53 2175.35,214.65 2368,268.61 C2447.53,290.89 2535.65,330.32 2585.88,354.3 " fill="none" id="PlanoDeEntregas-Entrega" style="stroke:#181818;stroke-width:1.0;"/><polygon fill="#000000" points="2344.8694,252.9211,2336.7279,248.0051,2335.3932,253.7294,2344.8694,252.9211" style="stroke:#000000;stroke-width:1.0;"/><text fill="#000000" font-family="sans-serif" font-size="13" lengthAdjust="spacing" textLength="46" x="2349" y="257.1051">formado</text><text fill="#000000" font-family="sans-serif" font-size="13" lengthAdjust="spacing" textLength="7" x="1831.5874" y="174.0312">1</text><text fill="#000000" font-family="sans-serif" font-size="13" lengthAdjust="spacing" textLength="5" x="2573.1102" y="346.6125">*</text></g><!--MD5=[235c4b5515974a7cc8d78cdbc32c3a9c]
link Rota to PlanoDeEntregas--><g id="link_Rota_PlanoDeEntregas"><path codeLine="208" d="M901.16,151.15 C1077.83,107.49 1527.47,6 1663,67.61 C1699.8,84.34 1727.33,124.63 1741.43,149.27 " fill="none" id="Rota-PlanoDeEntregas" style="stroke:#181818;stroke-width:1.0;"/><polygon fill="#000000" points="1200.5,45.7746,1191.4483,42.8559,1191.4615,48.7338,1200.5,45.7746" style="stroke:#000000;stroke-width:1.0;"/><text fill="#000000" font-family="sans-serif" font-size="13" lengthAdjust="spacing" textLength="46" x="1204.5" y="51.1051">formada</text><text fill="#000000" font-family="sans-serif" font-size="13" lengthAdjust="spacing" textLength="7" x="908.9624" y="145.9386">1</text><text fill="#000000" font-family="sans-serif" font-size="13" lengthAdjust="spacing" textLength="7" x="1730.4728" y="138.8439">1</text></g><!--MD5=[166efd9c3cc310b8bb45bfc14e5b9fb2]
link Loja to Armazem--><g id="link_Loja_Armazem"><path codeLine="209" d="M95.76,204.02 C102.34,224.16 114.01,248.23 134,260.61 C152.49,272.06 895.94,263.19 917,268.61 C973.04,283.04 1030.58,316.58 1068.89,342.1 " fill="none" id="Loja-Armazem" style="stroke:#181818;stroke-width:1.0;"/><polygon fill="#000000" points="143.9504,252.4882,135.4079,248.3077,134.5822,254.1273,143.9504,252.4882" style="stroke:#000000;stroke-width:1.0;"/><text fill="#000000" font-family="sans-serif" font-size="13" lengthAdjust="spacing" textLength="43" x="148" y="257.1051">contém</text><text fill="#000000" font-family="sans-serif" font-size="13" lengthAdjust="spacing" textLength="7" x="89.5454" y="225.3381">1</text><text fill="#000000" font-family="sans-serif" font-size="13" lengthAdjust="spacing" textLength="7" x="1054.1428" y="332.9826">1</text></g><!--MD5=[8355c09d10bf6415bbb9e586c5d33479]
@startuml
hide methods

skinparam classAttributeIconSize 0



package "aggregate armazem"{

Armazem <<root>>

class Armazem{
-id
}
 

Endereco <<value object>>

class Endereco{
-rua
-numero
-codigoPostal
-cidade
-pais
}

Designacao <<value object>>

class Designacao{

}

Localizacao <<value object>>

class Localizacao{
    -latitude
    -longitude
}

}

Armazem  - -> "1" Endereco
Armazem  - -> "1" Designacao
Armazem  - -> "1" Localizacao

package "aggregate loja"{
Loja <<root>>

class Loja{
-id
}

Municipio <<value object>>

class Municipio{
}

}

Loja  - -> "1" Municipio

package "aggregate entrega"{

Entrega <<root>>

class Entrega{
-id
-idLoja
}

Data <<value object>>

class Data{
    -dia
    -mes
    -ano
}

Peso <<value object>>

class Peso{

}

TempoCarga <<value object>>

class TempoCarga{

}

TempoDescarga <<value object>>

class TempoDescarga{

}

}

Entrega  - -> "1" Data
Entrega  - -> "1" Peso
Entrega  - -> "1" TempoCarga
Entrega  - -> "1" TempoDescarga

package "aggregate rota"{

Rota <<root>>

class Rota{
-idArmazemPartida
-idArmazemChegada
}

Distancia <<value object>>

class Distancia{

}

TempoViagemCheio <<value object>>

class TempoViagemCheio{

}

EnergiaGasta <<value object>>

class EnergiaGasta{

}

TempoCarregamentoExtra <<value object>>

class TempoCarregamentoExtra{

}

}

Rota  - -> "1" Distancia
Rota  - -> "1" TempoViagemCheio
Rota  - -> "1" EnergiaGasta
Rota  - -> "1" TempoCarregamentoExtra


package "aggregate camião"{

Camiao <<root>>

class Camiao{
-id

}

Tara <<value object>>

class Tara{

}

Matrícula <<value object>>

class Matrícula{

}

Capacidade <<value object>>

class Capacidade{

}

CargaBateria <<value object>>

class CargaBateria{

}

Autonomia <<value object>>

class Autonomia{
    
}

TempoCarregamentoRapido <<value object>>

class TempoCarregamentoRapido{
    
}

Camiao  - -> "1" Tara
Camiao  - -> "1" Matrícula
Camiao  - -> "1" Capacidade
Camiao  - -> "1" CargaBateria
Camiao  - -> "1" Autonomia
Camiao  - -> "1" TempoCarregamentoRapido

class PlanoDeEntregas{

}

}

Camiao "1" - - "*" Rota : segue >
Rota "1" - - "1" Armazem : partida >
Rota "1" - - "1" Armazem : chegada >
Camiao "1" - - "1" Armazem : abastece >
Camiao "1" - - "1" Armazem : entrega >
PlanoDeEntregas "1" - - "*" Entrega : formado >
Rota "1" - - "1" PlanoDeEntregas : formada >
Loja "1" - - "1" Armazem: contém >



@enduml

PlantUML version 1.2022.4(Sat Apr 09 14:29:17 BST 2022)
(GPL source distribution)
Java Runtime: OpenJDK Runtime Environment
JVM: OpenJDK 64-Bit Server VM
Default Encoding: Cp1252
Language: pt
Country: PT
--></g></svg>