{
    "asset" : {
        "generator" : "Khronos glTF Blender I/O v3.3.32",
        "version" : "2.0"
    },
    "scene" : 0,
    "scenes" : [
        {
            "name" : "Scene",
            "nodes" : [
                2
            ]
        }
    ],
    "nodes" : [
        {
            "mesh" : 0,
            "name" : "Object_2"
        },
        {
            "children" : [
                0
            ],
            "name" : "b509cc9330024ec683138a624aa86d9b.obj.cleaner.materialmerger.gle"
        },
        {
            "children" : [
                1
            ],
            "name" : "Sketchfab_model"
        }
    ],
    "materials" : [
        {
            "doubleSided" : true,
            "name" : "Material__17251",
            "normalTexture" : {
                "index" : 0
            },
            "occlusionTexture" : {
                "index" : 1
            },
            "pbrMetallicRoughness" : {
                "baseColorTexture" : {
                    "index" : 2
                },
                "metallicRoughnessTexture" : {
                    "index" : 1
                }
            }
        }
    ],
    "meshes" : [
        {
            "name" : "Object_0",
            "primitives" : [
                {
                    "attributes" : {
                        "POSITION" : 0,
                        "NORMAL" : 1,
                        "TEXCOORD_0" : 2
                    },
                    "indices" : 3,
                    "material" : 0
                }
            ]
        }
    ],
    "textures" : [
        {
            "sampler" : 0,
            "source" : 0
        },
        {
            "sampler" : 0,
            "source" : 1
        },
        {
            "sampler" : 0,
            "source" : 2
        }
    ],
    "images" : [
        {
            "mimeType" : "image/png",
            "name" : "Material__17251_normal",
            "uri" : "Material__17251_normal.png"
        },
        {
            "mimeType" : "image/png",
            "name" : "Material__17251_metallicRoughness",
            "uri" : "Material__17251_metallicRoughness.png"
        },
        {
            "mimeType" : "image/png",
            "name" : "Material__17251_baseColor",
            "uri" : "Material__17251_baseColor.png"
        }
    ],
    "accessors" : [
        {
            "bufferView" : 0,
            "componentType" : 5126,
            "count" : 3088,
            "max" : [
                12.856216430664062,
                12.654542922973633,
                18.108495712280273
            ],
            "min" : [
                -12.855111122131348,
                -12.611913681030273,
                0.04768799990415573
            ],
            "type" : "VEC3"
        },
        {
            "bufferView" : 1,
            "componentType" : 5126,
            "count" : 3088,
            "type" : "VEC3"
        },
        {
            "bufferView" : 2,
            "componentType" : 5126,
            "count" : 3088,
            "type" : "VEC2"
        },
        {
            "bufferView" : 3,
            "componentType" : 5123,
            "count" : 3240,
            "type" : "SCALAR"
        }
    ],
    "bufferViews" : [
        {
            "buffer" : 0,
            "byteLength" : 37056,
            "byteOffset" : 0,
            "target" : 34962
        },
        {
            "buffer" : 0,
            "byteLength" : 37056,
            "byteOffset" : 37056,
            "target" : 34962
        },
        {
            "buffer" : 0,
            "byteLength" : 24704,
            "byteOffset" : 74112,
            "target" : 34962
        },
        {
            "buffer" : 0,
            "byteLength" : 6480,
            "byteOffset" : 98816,
            "target" : 34963
        }
    ],
    "samplers" : [
        {
            "magFilter" : 9729,
            "minFilter" : 9987
        }
    ],
    "buffers" : [
        {
            "byteLength" : 105296,
            "uri" : "Warehouse.bin"
        }
    ]
}
